<svg width="128" height="128" viewBox="0 0 128 128" fill="none" xmlns="http://www.w3.org/2000/svg">
<path fill-rule="evenodd" clip-rule="evenodd" d="M118.805 66.8706C117.299 66.7929 116.148 65.5083 116.148 64C116.148 62.4917 117.299 61.2071 118.805 61.1294L124.577 60.8318C126.42 60.7367 128 62.1544 128 64C128 65.8456 126.42 67.2633 124.577 67.1682L118.805 66.8706ZM109.167 37.9185C109.923 39.2238 111.563 39.7642 112.906 39.0784L118.045 36.455C119.693 35.6133 120.353 33.5845 119.425 31.9823C118.498 30.38 116.416 29.9494 114.865 30.9591L110.029 34.1058C108.765 34.9283 108.412 36.6132 109.167 37.9185ZM90.0815 18.8326C91.3868 19.588 93.0717 19.2348 93.8942 17.9708L97.0409 13.1352C98.0506 11.5835 97.62 9.50179 96.0177 8.57458C94.4155 7.64737 92.3867 8.3067 91.545 9.95545L88.9216 15.0938C88.2358 16.437 88.7762 18.0773 90.0815 18.8326ZM64 11.8519C65.5083 11.8519 66.7929 10.7009 66.8706 9.1946L67.1682 3.42331C67.2633 1.58014 65.8456 0 64 0C62.1544 0 60.7367 1.58014 60.8318 3.42331L61.1294 9.1946C61.2071 10.7009 62.4917 11.8519 64 11.8519ZM37.9185 18.8326C39.2238 18.0773 39.7642 16.437 39.0784 15.0938L36.455 9.95545C35.6133 8.3067 33.5845 7.64738 31.9823 8.57458C30.38 9.50179 29.9494 11.5835 30.9591 13.1352L34.1058 17.9708C34.9283 19.2348 36.6132 19.588 37.9185 18.8326ZM18.8326 37.9185C19.588 36.6132 19.2348 34.9283 17.9708 34.1058L13.1352 30.9591C11.5835 29.9494 9.50179 30.38 8.57458 31.9823C7.64737 33.5845 8.3067 35.6133 9.95545 36.455L15.0938 39.0784C16.437 39.7642 18.0773 39.2238 18.8326 37.9185ZM9.1946 61.1294C10.7009 61.2071 11.8519 62.4917 11.8519 64C11.8519 65.5083 10.7009 66.7929 9.1946 66.8706L3.42331 67.1682C1.58014 67.2633 0 65.8456 0 64C0 62.1544 1.58014 60.7367 3.42331 60.8318L9.1946 61.1294ZM18.8326 90.0815C18.0773 88.7762 16.437 88.2358 15.0938 88.9216L9.95545 91.545C8.3067 92.3867 7.64738 94.4155 8.57458 96.0177C9.50179 97.62 11.5836 98.0506 13.1352 97.0409L17.9708 93.8942C19.2348 93.0717 19.588 91.3868 18.8326 90.0815ZM37.9185 109.167C36.6132 108.412 34.9283 108.765 34.1058 110.029L30.9591 114.865C29.9494 116.416 30.38 118.498 31.9823 119.425C33.5845 120.353 35.6133 119.693 36.455 118.045L39.0784 112.906C39.7642 111.563 39.2238 109.923 37.9185 109.167ZM64 116.148C62.4917 116.148 61.2071 117.299 61.1294 118.805L60.8318 124.577C60.7367 126.42 62.1544 128 64 128C65.8456 128 67.2633 126.42 67.1682 124.577L66.8706 118.805C66.7929 117.299 65.5084 116.148 64 116.148ZM90.0815 109.167C88.7762 109.923 88.2358 111.563 88.9216 112.906L91.545 118.045C92.3867 119.693 94.4155 120.353 96.0177 119.425C97.62 118.498 98.0506 116.416 97.0409 114.865L93.8942 110.029C93.0717 108.765 91.3868 108.412 90.0815 109.167ZM109.167 90.0815C108.412 91.3868 108.765 93.0717 110.029 93.8942L114.865 97.0409C116.416 98.0506 118.498 97.62 119.425 96.0177C120.353 94.4155 119.693 92.3867 118.045 91.545L112.906 88.9216C111.563 88.2358 109.923 88.7762 109.167 90.0815Z" fill="#FFD400"/>
<path d="M107.852 64C107.852 88.2187 88.2188 107.852 64 107.852C39.7813 107.852 20.1482 88.2187 20.1482 64C20.1482 39.7813 39.7813 20.1481 64 20.1481C88.2188 20.1481 107.852 39.7813 107.852 64Z" fill="#FFD400"/>
</svg>
