<svg width="128" height="128" viewBox="0 0 128 128" fill="none" xmlns="http://www.w3.org/2000/svg">
<path d="M63.1606 26.2045C64.0758 26.7341 65.2572 26.4865 65.8339 25.6002L68.0402 22.2097C68.7481 21.1218 68.4462 19.6622 67.3228 19.0121C66.1993 18.362 64.7769 18.8242 64.1867 19.9803L62.3473 23.583C61.8665 24.5248 62.2454 25.6749 63.1606 26.2045Z" fill="#FFD400"/>
<path d="M44.8736 21.3099C45.9311 21.3099 46.8318 20.503 46.8863 19.4468L47.0949 15.4003C47.1616 14.1079 46.1676 13 44.8736 13C43.5795 13 42.5855 14.1079 42.6522 15.4003L42.8609 19.4468C42.9153 20.503 43.816 21.3099 44.8736 21.3099Z" fill="#FFD400"/>
<path d="M26.5865 26.2045C27.5017 25.6749 27.8806 24.5248 27.3998 23.583L25.5604 19.9803C24.9702 18.8242 23.5478 18.362 22.4244 19.0121C21.3009 19.6622 20.999 21.1218 21.707 22.2097L23.9133 25.6002C24.49 26.4865 25.6713 26.7341 26.5865 26.2045Z" fill="#FFD400"/>
<path d="M13.2045 39.5865C13.7341 38.6713 13.4865 37.49 12.6002 36.9133L9.20971 34.707C8.1218 33.999 6.66217 34.3009 6.01206 35.4244C5.36195 36.5478 5.82424 37.9702 6.98026 38.5604L10.583 40.3998C11.5248 40.8806 12.6749 40.5017 13.2045 39.5865Z" fill="#FFD400"/>
<path d="M6.44679 55.8609C7.50296 55.9153 8.30992 56.816 8.30992 57.8736C8.30992 58.9311 7.50296 59.8318 6.44679 59.8863L2.40025 60.0949C1.10792 60.1616 0 59.1676 0 57.8736C0 56.5795 1.10791 55.5855 2.40025 55.6522L6.44679 55.8609Z" fill="#FFD400"/>
<path d="M65.7103 35.2638C60.2318 30.2124 52.913 27.1269 44.8736 27.1269C27.8927 27.1269 14.1269 40.8927 14.1269 57.8736C14.1269 59.1145 14.2004 60.3382 14.3433 61.5407C19.3125 58.2914 25.2517 56.4023 31.6322 56.4023C34.2197 56.4023 36.7383 56.7137 39.1509 57.3022C44.4915 46.6969 54.0923 38.5996 65.7103 35.2638Z" fill="#FFD400"/>
<path d="M31.6322 115.989C16.1937 115.989 3.67822 103.473 3.67822 88.0345C3.67822 72.5959 16.1937 60.0805 31.6322 60.0805C34.9798 60.0805 38.1899 60.6689 41.1648 61.748C47.0343 47.3913 61.1405 37.2759 77.6093 37.2759C99.3452 37.2759 116.966 54.8963 116.966 76.6322C116.966 77.5897 116.931 78.5393 116.864 79.4797C123.437 82.5062 128 89.1513 128 96.8621C128 107.425 119.437 115.989 108.874 115.989H31.6322Z" fill="white"/>
</svg>
