<svg width="128" height="128" viewBox="0 0 128 128" fill="none" xmlns="http://www.w3.org/2000/svg">
<path d="M24.5016 95.9913C10.9697 95.9913 0 85.0216 0 71.4897C0 57.9579 10.9697 46.9881 24.5016 46.9881C27.4357 46.9881 30.2494 47.5039 32.8569 48.4497C38.0014 35.8661 50.3654 27 64.8003 27C83.8517 27 99.2959 42.4442 99.2959 61.4957C99.2959 62.3349 99.2659 63.1672 99.207 63.9914C104.968 66.6442 108.968 72.4686 108.968 79.2271C108.968 88.4857 101.462 95.9913 92.2033 95.9913H24.5016Z" fill="#48484A"/>
<path d="M43.5341 101C30.0022 101 19.0325 90.0301 19.0325 76.4983C19.0325 62.9664 30.0022 51.9967 43.5341 51.9967C46.4682 51.9967 49.2818 52.5124 51.8893 53.4582C57.0339 40.8747 69.3979 32.0085 83.8327 32.0085C102.884 32.0085 118.328 47.4528 118.328 66.5042C118.328 67.3435 118.298 68.1757 118.239 69C124.001 71.6527 128 77.4771 128 84.2356C128 93.4942 120.494 101 111.236 101H43.5341Z" fill="white"/>
</svg>
