<svg width="128" height="128" viewBox="0 0 128 128" fill="none" xmlns="http://www.w3.org/2000/svg">
<path d="M28.7811 85.0414C12.8857 85.0414 0 72.1557 0 56.2604C0 40.365 12.8857 27.4793 28.7811 27.4793C32.2277 27.4793 35.5328 28.0851 38.5957 29.1961C44.6388 14.4147 59.1623 4 76.1183 4C98.4973 4 116.639 22.1417 116.639 44.5207C116.639 45.5066 116.604 46.4842 116.535 47.4524C123.302 50.5685 128 57.4102 128 65.3491C128 76.2249 119.183 85.0414 108.308 85.0414H28.7811Z" fill="white"/>
<path d="M97.0905 100.811L93.1597 92.6154L89.2287 100.811C88.8387 101.494 88.6153 102.288 88.6153 103.135C88.6153 105.691 90.6499 107.763 93.1597 107.763C95.6695 107.763 97.7041 105.691 97.7041 103.135C97.7041 102.288 97.4806 101.494 97.0905 100.811Z" fill="#64D2FF"/>
<path d="M83.4576 117.474L79.5266 109.278L75.5959 117.473C75.2057 118.156 74.9822 118.95 74.9822 119.797C74.9822 122.354 77.0168 124.426 79.5266 124.426C82.0363 124.426 84.0709 122.354 84.0709 119.797C84.0709 118.951 83.8476 118.157 83.4576 117.474Z" fill="#64D2FF"/>
<path d="M69.8244 100.811L65.8934 92.6154L61.9626 100.811C61.5725 101.494 61.349 102.288 61.349 103.135C61.349 105.691 63.3836 107.763 65.8934 107.763C68.4032 107.763 70.4378 105.691 70.4378 103.135C70.4378 102.288 70.2144 101.494 69.8244 100.811Z" fill="#64D2FF"/>
<path d="M56.9484 117.473L53.0177 109.278L49.0867 117.474C48.6967 118.157 48.4733 118.95 48.4733 119.797C48.4733 122.354 50.5079 124.426 53.0177 124.426C55.5275 124.426 57.5621 122.354 57.5621 119.797C57.5621 118.95 57.3386 118.156 56.9484 117.473Z" fill="#64D2FF"/>
<path d="M43.3156 100.811L39.3846 92.6154L35.4538 100.811C35.0636 101.494 34.8402 102.288 34.8402 103.135C34.8402 105.691 36.8748 107.763 39.3845 107.763C41.8943 107.763 43.9289 105.691 43.9289 103.135C43.9289 102.288 43.7056 101.494 43.3156 100.811Z" fill="#64D2FF"/>
<path d="M29.6823 117.473L25.7514 109.278L21.8206 117.473C21.4305 118.156 21.207 118.95 21.207 119.797C21.207 122.354 23.2416 124.426 25.7514 124.426C28.2612 124.426 30.2958 122.354 30.2958 119.797C30.2958 118.95 30.0724 118.156 29.6823 117.473Z" fill="#64D2FF"/>
</svg>
