<svg width="128" height="128" viewBox="0 0 128 128" fill="none" xmlns="http://www.w3.org/2000/svg">
<path d="M62.9697 12.5374C63.8387 13.0403 64.9604 12.8052 65.5079 11.9637L67.6028 8.74443C68.2749 7.71148 67.9883 6.3256 66.9216 5.70833C65.8549 5.09107 64.5044 5.53 63.944 6.62761L62.1975 10.0484C61.741 10.9426 62.1007 12.0345 62.9697 12.5374Z" fill="#FFD400"/>
<path d="M45.6065 7.8901C46.6107 7.8901 47.4658 7.12391 47.5176 6.1211L47.7157 2.27899C47.779 1.05194 46.8352 0 45.6065 0C44.3779 0 43.4341 1.05194 43.4974 2.27899L43.6955 6.12109C43.7473 7.12391 44.6024 7.8901 45.6065 7.8901Z" fill="#FFD400"/>
<path d="M28.2434 12.5374C29.1124 12.0345 29.4721 10.9426 29.0156 10.0484L27.2691 6.62761C26.7087 5.53 25.3581 5.09107 24.2915 5.70833C23.2248 6.3256 22.9382 7.71148 23.6103 8.74443L25.7052 11.9637C26.2527 12.8052 27.3744 13.0403 28.2434 12.5374Z" fill="#FFD400"/>
<path d="M15.5374 25.2434C16.0403 24.3744 15.8052 23.2527 14.9637 22.7052L11.7444 20.6103C10.7115 19.9382 9.3256 20.2248 8.70833 21.2915C8.09107 22.3581 8.53 23.7087 9.62761 24.2691L13.0484 26.0156C13.9426 26.4721 15.0345 26.1124 15.5374 25.2434Z" fill="#FFD400"/>
<path d="M9.1211 40.6955C10.1239 40.7473 10.8901 41.6024 10.8901 42.6065C10.8901 43.6107 10.1239 44.4658 9.12109 44.5176L5.27899 44.7157C4.05194 44.779 3 43.8352 3 42.6065C3 41.3779 4.05194 40.4341 5.27899 40.4974L9.1211 40.6955Z" fill="#FFD400"/>
<path d="M65.3906 21.1391C60.1889 16.3428 53.2399 13.4132 45.6066 13.4132C29.4835 13.4132 16.4132 26.4835 16.4132 42.6066C16.4132 43.7848 16.483 44.9467 16.6187 46.0884C21.3369 43.0032 26.976 41.2096 33.0341 41.2096C35.4909 41.2096 37.8823 41.5053 40.1729 42.064C45.2438 31.9946 54.3596 24.3063 65.3906 21.1391Z" fill="#FFD400"/>
<path d="M33.0342 97.7855C18.3756 97.7855 6.49243 85.9024 6.49243 71.2437C6.49243 56.5851 18.3756 44.7019 33.0342 44.7019C36.2127 44.7019 39.2606 45.2606 42.0852 46.2852C47.6582 32.6538 61.0517 23.0494 76.6885 23.0494C97.3263 23.0494 114.057 39.7797 114.057 60.4175C114.057 61.3266 114.024 62.2282 113.96 63.1211C120.201 65.9947 124.534 72.3041 124.534 79.6253C124.534 89.6549 116.403 97.7855 106.373 97.7855H33.0342Z" fill="white"/>
<path d="M101.635 105.578L97.903 97.7964L94.1707 105.578C93.8004 106.226 93.5883 106.98 93.5883 107.784C93.5883 110.211 95.5201 112.179 97.9031 112.179C100.286 112.179 102.218 110.211 102.218 107.784C102.218 106.98 102.006 106.226 101.635 105.578Z" fill="#64D2FF"/>
<path d="M88.6911 121.399L84.9587 113.617L81.2266 121.398C80.8561 122.047 80.6439 122.801 80.6439 123.605C80.6439 126.032 82.5757 128 84.9587 128C87.3417 128 89.2735 126.032 89.2735 123.605C89.2735 122.801 89.0614 122.047 88.6911 121.399Z" fill="#64D2FF"/>
<path d="M75.7466 105.578L72.0143 97.7964L68.282 105.578C67.9116 106.226 67.6995 106.98 67.6995 107.784C67.6995 110.211 69.6313 112.179 72.0143 112.179C74.3973 112.179 76.3291 110.211 76.3291 107.784C76.3291 106.98 76.117 106.226 75.7466 105.578Z" fill="#64D2FF"/>
<path d="M63.5212 121.398L59.789 113.617L56.0566 121.399C55.6863 122.047 55.4742 122.801 55.4742 123.605C55.4742 126.032 57.406 128 59.789 128C62.172 128 64.1038 126.032 64.1038 123.605C64.1038 122.801 63.8916 122.047 63.5212 121.398Z" fill="#64D2FF"/>
<path d="M50.5771 105.578L46.8447 97.7964L43.1125 105.578C42.742 106.226 42.5298 106.98 42.5298 107.784C42.5298 110.211 44.4616 112.179 46.8446 112.179C49.2276 112.179 51.1594 110.211 51.1594 107.784C51.1594 106.98 50.9474 106.226 50.5771 105.578Z" fill="#64D2FF"/>
<path d="M37.6325 121.399L33.9002 113.617L30.168 121.399C29.7976 122.047 29.5854 122.801 29.5854 123.605C29.5854 126.032 31.5172 128 33.9002 128C36.2832 128 38.215 126.032 38.215 123.605C38.215 122.801 38.0029 122.047 37.6325 121.399Z" fill="#64D2FF"/>
</svg>
