<svg width="128" height="128" viewBox="0 0 128 128" fill="none" xmlns="http://www.w3.org/2000/svg">
<path d="M92.9045 58.0177H84.8837C83.3934 58.0177 82.0738 58.9805 81.6188 60.3997L74.1447 83.7154C73.4353 85.9281 75.086 88.1906 77.4096 88.1906H81.5032C82.8117 88.1906 83.8531 89.287 83.7859 90.5938L82.5186 115.207C82.4869 115.822 83.3149 116.045 83.597 115.499L101.182 81.4294C102.36 79.1474 100.703 76.4283 98.1353 76.4283H94.7123C93.1535 76.4283 92.052 74.9022 92.5429 73.4227L96.1586 62.526C96.8949 60.3068 95.2427 58.0177 92.9045 58.0177Z" fill="#FFD400"/>
<path d="M103.063 86.0414L105.418 81.4796C107.499 77.4468 104.572 72.6413 100.034 72.6413H96.7922L100.257 62.1981C101.559 58.2762 98.6388 54.2308 94.5066 54.2308H84.0401C81.4063 54.2308 79.0742 55.9322 78.2702 58.4403L70.0546 84.0688C69.8425 84.7304 69.7498 85.3945 69.7621 86.0414L28.7811 86.0414C12.8857 86.0414 0 73.1557 0 57.2603C0 41.365 12.8857 28.4793 28.7811 28.4793C32.2277 28.4793 35.5328 29.0851 38.5957 30.1961C44.6388 15.4147 59.1624 5 76.1184 5C98.4973 5 116.639 23.1417 116.639 45.5207C116.639 46.5066 116.604 47.4842 116.535 48.4524C123.302 51.5685 128 58.4102 128 66.3491C128 77.2248 119.183 86.0414 108.308 86.0414H103.063Z" fill="white"/>
<path d="M69.0664 116.958L65.1359 108.763L61.2049 116.959C60.8149 117.642 60.5916 118.436 60.5916 119.283C60.5916 121.839 62.6262 123.911 65.136 123.911C67.6458 123.911 69.6804 121.839 69.6804 119.283C69.6804 118.435 69.4568 117.641 69.0664 116.958Z" fill="#64D2FF"/>
<path d="M55.4339 101.811L51.5028 93.6154L47.5723 101.81C47.182 102.493 46.9584 103.287 46.9584 104.135C46.9584 106.691 48.993 108.763 51.5028 108.763C54.0126 108.763 56.0472 106.691 56.0472 104.135C56.0472 103.288 55.8238 102.494 55.4339 101.811Z" fill="#64D2FF"/>
<path d="M41.8006 116.959L37.8697 108.763L33.9391 116.958C33.5489 117.641 33.3253 118.435 33.3253 119.283C33.3253 121.839 35.3599 123.911 37.8697 123.911C40.3795 123.911 42.4141 121.839 42.4141 119.283C42.4141 118.436 42.1907 117.642 41.8006 116.959Z" fill="#64D2FF"/>
<path d="M28.1672 101.81L24.2365 93.6154L20.3056 101.811C19.9155 102.494 19.6921 103.288 19.6921 104.135C19.6921 106.691 21.7267 108.763 24.2365 108.763C26.7463 108.763 28.7809 106.691 28.7809 104.135C28.7809 103.288 28.5574 102.493 28.1672 101.81Z" fill="#64D2FF"/>
</svg>
