<svg width="128" height="128" viewBox="0 0 128 128" fill="none" xmlns="http://www.w3.org/2000/svg">
<path d="M44.4248 67.0077C44.4248 66.0263 45.2204 65.2307 46.2018 65.2307C47.1832 65.2307 47.9788 66.0263 47.9788 67.0077V73.4249L51.0802 70.668C51.8086 70.0206 52.9313 70.0794 53.588 70.7994C54.2447 71.5194 54.1866 72.6279 53.4583 73.2753L47.9788 78.1461V86.1036L55.3312 81.9129L56.7641 75.2577C56.9682 74.3094 57.912 73.7039 58.8719 73.9054C59.8318 74.1068 60.4445 75.0389 60.2403 75.9872L59.4727 79.5523L64.674 76.5877C65.5185 76.1064 66.6009 76.3964 67.0916 77.2354C67.5822 78.0745 67.2955 79.1449 66.451 79.6262L60.8275 82.8315L64.7345 84.0847C65.6685 84.3843 66.1798 85.3742 65.8765 86.2956C65.5733 87.217 64.5703 87.7211 63.6363 87.4215L56.6859 85.1921L49.8884 89.0665L57.2222 93.2466L63.7179 91.163C64.6519 90.8634 65.6549 91.3675 65.9581 92.2889C66.2614 93.2103 65.7501 94.2002 64.8161 94.4998L61.3637 95.6072L66.5293 98.5514C67.3737 99.0327 67.6605 100.103 67.1698 100.942C66.6791 101.781 65.5968 102.071 64.7523 101.59L59.0932 98.3643L59.9601 102.391C60.1643 103.339 59.5516 104.271 58.5917 104.473C57.6317 104.674 56.688 104.069 56.4839 103.12L54.9516 96.0037L47.9788 92.0293V100.553L53.1029 105.108C53.8312 105.756 53.8893 106.864 53.2326 107.584C52.5759 108.304 51.4532 108.363 50.7248 107.716L47.9788 105.275V111.17C47.9788 112.151 47.1832 112.947 46.2018 112.947C45.2204 112.947 44.4248 112.151 44.4248 111.17V104.793L41.3693 107.509C40.6409 108.157 39.5182 108.098 38.8615 107.378C38.2048 106.658 38.2629 105.55 38.9913 104.902L44.4248 100.072V92.1806L36.9582 96.4364L35.5382 103.032C35.334 103.98 34.3903 104.585 33.4304 104.384C32.4704 104.182 31.8578 103.25 32.0619 102.302L32.8166 98.797L27.6513 101.741C26.8069 102.222 25.7245 101.932 25.2338 101.093C24.7431 100.254 25.0299 99.184 25.8744 98.7027L31.5337 95.477L27.5677 94.2048C26.6337 93.9052 26.1225 92.9154 26.4257 91.9939C26.729 91.0725 27.732 90.5684 28.6659 90.868L35.6752 93.1164L42.7806 89.0665L35.2953 84.8001L28.7411 86.9025C27.8071 87.2021 26.8041 86.698 26.5008 85.7765C26.1976 84.8551 26.7089 83.8653 27.6428 83.5657L31.1538 82.4395L25.9526 79.4749C25.1082 78.9936 24.8214 77.9232 25.3121 77.0842C25.8028 76.2451 26.8851 75.9551 27.7296 76.4365L33.353 79.6416L32.4988 75.6747C32.2947 74.7264 32.9073 73.7943 33.8673 73.5929C34.8272 73.3914 35.7709 73.9969 35.9751 74.9452L37.4945 82.0022L44.4248 85.9524V77.5831L39.3467 73.0691C38.6183 72.4217 38.5603 71.3132 39.2169 70.5932C39.8736 69.8732 40.9964 69.8143 41.7247 70.4618L44.4248 72.8619V67.0077Z" fill="#64D2FF"/>
<path d="M69.8233 97.0414C69.5146 96.7262 69.1569 96.4482 68.7534 96.2191L68.587 96.1246C69.6661 94.8905 70.1004 93.1377 69.5396 91.4402C69.2472 90.5553 68.7276 89.817 68.0692 89.2623C68.6875 88.7165 69.1753 88.0041 69.4551 87.1573C70.0585 85.3309 69.5099 83.4405 68.2456 82.2009L68.6722 81.9587C71.015 80.6284 71.8133 77.6488 70.4494 75.3254C69.1027 73.0315 66.1532 72.2413 63.8401 73.5547L63.5767 73.7042C63.0516 72.0981 61.6936 70.8237 59.9438 70.4579C59.0318 70.2673 58.117 70.3451 57.2896 70.6418C57.1425 69.7513 56.7431 68.891 56.0858 68.1731C54.7807 66.7475 52.8137 66.2731 51.0715 66.7964V66.3137C51.0715 63.6241 48.8912 61.4438 46.2016 61.4438C43.512 61.4438 41.3316 63.6241 41.3316 66.3137V66.4785C39.6992 66.141 37.9352 66.647 36.7329 67.9603C36.0951 68.6569 35.7002 69.4875 35.5428 70.3497C34.6943 70.0282 33.7491 69.9387 32.807 70.1356C30.9453 70.5248 29.527 71.9426 29.0836 73.6942L28.5631 73.3986C26.25 72.0852 23.3004 72.8755 21.9538 75.1694C20.5899 77.4927 21.3881 80.4723 23.7309 81.8026L23.9052 81.9015C22.803 83.1375 22.3546 84.9078 22.9209 86.6219C23.2218 87.5326 23.7634 88.288 24.4492 88.8478C23.7266 89.4133 23.1553 90.191 22.8431 91.1359C22.2341 92.9792 22.7986 94.8876 24.0878 96.1265L23.6498 96.3751C23.5593 96.4265 23.4712 96.4803 23.3854 96.5365C10.0691 94.0108 0 82.3115 0 68.2604C0 52.365 12.8857 39.4793 28.7811 39.4793C32.2277 39.4793 35.5328 40.0851 38.5957 41.1961C44.6388 26.4147 59.1623 16 76.1183 16C98.4973 16 116.639 34.1417 116.639 56.5207C116.639 57.5066 116.604 58.4842 116.535 59.4524C123.302 62.5685 128 69.4102 128 77.3491C128 88.2249 119.183 97.0414 108.308 97.0414H69.8233Z" fill="white"/>
</svg>
