<svg xmlns="http://www.w3.org/2000/svg" viewBox="0 0 22 22" fill="current" stroke="none">
    <g id="Layer_2" data-name="Layer 2">
        <g id="Icons">
            <path d="M9,12H1a1,1,0,0,0-1,1v8a1,1,0,0,0,1,1H9a1,1,0,0,0,1-1V13A1,1,0,0,0,9,12ZM8,20H2V14H8Z" />
            <path d="M21,12H13a1,1,0,0,0-1,1v8a1,1,0,0,0,1,1h8a1,1,0,0,0,1-1V13A1,1,0,0,0,21,12Zm-1,8H14V14h6Z" />
            <path d="M9,0H1A1,1,0,0,0,0,1V9a1,1,0,0,0,1,1H9a1,1,0,0,0,1-1V1A1,1,0,0,0,9,0ZM8,8H2V2H8Z" />
            <path d="M21,0H13a1,1,0,0,0-1,1V9a1,1,0,0,0,1,1h8a1,1,0,0,0,1-1V1A1,1,0,0,0,21,0ZM20,8H14V2h6Z" />
        </g>
    </g>
</svg>