<svg width="128" height="128" viewBox="0 0 128 128" fill="none" xmlns="http://www.w3.org/2000/svg">
<path d="M85.2413 27.7247C85.2413 25.2863 83.2645 23.3094 80.8261 23.3094H4.41521C1.97684 23.3094 0 25.2863 0 27.7247C0 30.163 1.97684 32.1399 4.41521 32.1399H80.8261C83.2645 32.1399 85.2413 30.163 85.2413 27.7247Z" fill="#48484A"/>
<path d="M123.585 41.4471H34.5163C32.0779 41.4471 30.1011 43.424 30.1011 45.8624C30.1011 48.3007 32.0779 50.2776 34.5163 50.2776H123.585C126.023 50.2776 128 48.3007 128 45.8624C128 43.424 126.023 41.4471 123.585 41.4471Z" fill="#48484A"/>
<path d="M102.745 68.4147C105.183 68.4147 107.16 66.4378 107.16 63.9994C107.16 61.5611 105.183 59.5842 102.745 59.5842H13.2138C10.7754 59.5842 8.79858 61.5611 8.79858 63.9994C8.79858 66.4378 10.7754 68.4147 13.2138 68.4147H102.745Z" fill="#48484A"/>
<path d="M117.41 77.7219H28.0331C25.5948 77.7219 23.6179 79.6988 23.6179 82.1371C23.6179 84.5755 25.5948 86.5524 28.0331 86.5524H117.41C119.848 86.5524 121.825 84.5755 121.825 82.1371C121.825 79.6988 119.848 77.7219 117.41 77.7219Z" fill="#48484A"/>
<path d="M74.0338 95.8602H14.7575C12.3191 95.8602 10.3423 97.8371 10.3423 100.275C10.3423 102.714 12.3191 104.691 14.7575 104.691H74.0332C76.4716 104.691 78.4484 102.714 78.4484 100.275C78.449 97.8371 76.4722 95.8602 74.0338 95.8602Z" fill="#48484A"/>
</svg>
