<svg xmlns="http://www.w3.org/2000/svg" width="30" height="30" viewBox="0 0 30 30">
    <g id="Layer_2" data-name="Layer 2">
        <g id="Icons">
            <path style=" fill: #f00020;"
                d="M25.92,10.62A1,1,0,0,0,25,10H20L15.88,2.52A1,1,0,0,0,15,2a1,1,0,0,0-.88.49l-2.37,4a1,1,0,1,0,1.71,1L15,5l3.54,6.46a.91.91,0,0,0,.17.23h0a1,1,0,0,0,.27.19l.08,0a1,1,0,0,0,.34.07h3.22l-3.3,3.29a.75.75,0,0,0-.07.12,1,1,0,0,0-.14.2,1.16,1.16,0,0,0,0,.18c0,.06,0,.12,0,.19a.93.93,0,0,0,0,.23c0,.05,0,.09,0,.14L21.17,22l-5.72-2.86s0,0-.07,0a1.17,1.17,0,0,0-.2-.06L15,19l-.18,0a1.17,1.17,0,0,0-.2.06s0,0-.07,0L8.83,22l2.11-5.62c0-.05,0-.09,0-.14A.93.93,0,0,0,11,16c0-.07,0-.13,0-.19a1.16,1.16,0,0,0,0-.18,1,1,0,0,0-.14-.2.75.75,0,0,0-.07-.12L7.41,12H14a1,1,0,0,0,0-2H5a1,1,0,0,0-.92.62,1,1,0,0,0,.21,1.09l4.55,4.54-2.78,7.4A1,1,0,0,0,7,25a.91.91,0,0,0,.45-.11L15,21.12l7.55,3.77A.91.91,0,0,0,23,25a1,1,0,0,0,.94-1.35l-2.78-7.4,4.55-4.54A1,1,0,0,0,25.92,10.62Z" />
            <path style="fill: #bec4c4;" d="M29,7a1,1,0,0,1-1-1V2H24a1,1,0,0,1,0-2h5a1,1,0,0,1,1,1V6A1,1,0,0,1,29,7Z" />
            <path style="fill: #bec4c4;" d="M1,7A1,1,0,0,1,0,6V1A1,1,0,0,1,1,0H6A1,1,0,0,1,6,2H2V6A1,1,0,0,1,1,7Z" />
            <path style="fill: #bec4c4;" d="M29,30H24a1,1,0,0,1,0-2h4V24a1,1,0,0,1,2,0v5A1,1,0,0,1,29,30Z" />
            <path style="fill: #bec4c4;" d="M6,30H1a1,1,0,0,1-1-1V24a1,1,0,0,1,2,0v4H6a1,1,0,0,1,0,2Z" />
        </g>
    </g>
</svg>