<svg xmlns="http://www.w3.org/2000/svg" width="250" height="110" viewBox="0 0 250 110">
    <defs>
        <style>
            .a123_cls-1,.a123_cls-5,.a123_cls-7 {
                fill:none;
            }
            .a123_cls-1 {
                stroke:#F00020;
            }
            .a123_cls-1,.a123_cls-4,.a123_cls-5,.a123_cls-7{
                stroke-linecap:round;
            }
            .a123_cls-1,.a123_cls-3,.a123_cls-6{
                stroke-miterlimit:10;
            }
            .a123_cls-2{
                fill:#e6ebf0;
            }
            .a123_cls-3{
                fill:#d9dfe0;
            }
            .a123_cls-3,.a123_cls-6{
                stroke:#84898a;
            }
            .a123_cls-4,.a123_cls-6{
                fill:#fff;
            }
            .a123_cls-4,.a123_cls-5{
                stroke:#80858a;
            }
            .a123_cls-4,.a123_cls-5,.a123_cls-7{
                stroke-linejoin:round;
            }
            .a123_cls-7{
                stroke:#F00020;
            }
        </style>
    </defs>
    <g >
        <line class="a123_cls-1" x1="26.5" y1="101.5" x2="26.5" y2="109.5"/>
        <line class="a123_cls-1" x1="22.5" y1="105.5" x2="30.5" y2="105.5"/>
        <line class="a123_cls-1" x1="6.5" y1="77.5" x2="6.5" y2="89.5"/>
        <line class="a123_cls-1" x1="0.5" y1="83.5" x2="12.5" y2="83.5"/>
        <circle class="a123_cls-2" cx="237" cy="13" r="13"/>
        <path class="a123_cls-2" d="M213,42H190a8,8,0,0,1,0-16h5a13,13,0,0,0,0-26H55a13,13,0,0,0,0,26h1a8,8,0,0,1,0,16H33A13,13,0,0,0,20,55h0A13,13,0,0,0,33,68H56a8,8,0,0,1,0,16H51a13,13,0,0,0,0,26H191a13,13,0,0,0,0-26h-1a8,8,0,0,1,0-16h23a13,13,0,0,0,13-13h0A13,13,0,0,0,213,42Z"/>
        <rect class="a123_cls-3" x="75.5" y="23.5" width="94" height="64" rx="1" ry="1"/>
        <rect class="a123_cls-4" x="80.5" y="28.5" width="84" height="46"/>
        <line class="a123_cls-5" x1="118.5" y1="81.5" x2="127.5" y2="81.52"/>
        <rect class="a123_cls-6" x="58.5" y="9.5" width="58" height="38" rx="2" ry="2"/>
        <polyline class="a123_cls-7" points="87.5 25.5 77.5 25.5 82.5 30.5"/>
        <polyline class="a123_cls-7" points="82.5 30.5 79.5 38.5 87.5 33.5"/>
        <polyline class="a123_cls-7" points="92.5 25.5 87.5 17.5 84.5 22.5"/>
        <polyline class="a123_cls-7" points="87.5 33.5 95.5 38.5 93 31"/>
        <polyline class="a123_cls-7" points="93 31 97.5 25.5 92.5 25.5"/>
    </g>
</svg>