<svg xmlns="http://www.w3.org/2000/svg" width="250" height="110" viewBox="0 0 250 110">
<defs>
    <style>
    .content-default-sidebar-1,.content-default-sidebar-7,.content-default-sidebar-8{fill:none;stroke-linecap:round;}.content-default-sidebar-1{stroke:#f00020;}.content-default-sidebar-1,.content-default-sidebar-3,.content-default-sidebar-4,.content-default-sidebar-5,.content-default-sidebar-6,.content-default-sidebar-7{stroke-miterlimit:10;}.content-default-sidebar-2,.content-default-sidebar-5{fill:#e6ebf0;}.content-default-sidebar-3{fill:#d9dfe0;}.content-default-sidebar-3,.content-default-sidebar-4,.content-default-sidebar-5{stroke:#84898a;}.content-default-sidebar-4,.content-default-sidebar-6{fill:#fff;}.content-default-sidebar-6,.content-default-sidebar-7,.content-default-sidebar-8{stroke:#f00020;}.content-default-sidebar-8{stroke-linejoin:round;}</style></defs><g id="Layer_2" data-name="Layer 2"><g id="Icons"><line class="content-default-sidebar-1" x1="26.5" y1="101.5" x2="26.5" y2="109.5"/><line class="content-default-sidebar-1" x1="22.5" y1="105.5" x2="30.5" y2="105.5"/><line class="content-default-sidebar-1" x1="6.5" y1="77.5" x2="6.5" y2="89.5"/><line class="content-default-sidebar-1" x1="0.5" y1="83.5" x2="12.5" y2="83.5"/><circle class="content-default-sidebar-2" cx="237" cy="13" r="13"/><path class="content-default-sidebar-2" d="M213,42H190a8,8,0,0,1,0-16h5a13,13,0,0,0,0-26H55a13,13,0,0,0,0,26h1a8,8,0,0,1,0,16H33A13,13,0,0,0,20,55h0A13,13,0,0,0,33,68H56a8,8,0,0,1,0,16H51a13,13,0,0,0,0,26H191a13,13,0,0,0,0-26h-1a8,8,0,0,1,0-16h23a13,13,0,0,0,13-13h0A13,13,0,0,0,213,42Z"/><path class="content-default-sidebar-3" d="M95.5,84.5a3,3,0,0,1-6,0v-32a2,2,0,0,1,2-2h4Z"/><rect class="content-default-sidebar-4" x="72.5" y="19.5" width="58" height="38" rx="2" ry="2"/><rect class="content-default-sidebar-4" x="82.5" y="29.5" width="58" height="38" rx="2" ry="2"/><path class="content-default-sidebar-5" d="M92.5,87.5h67a2,2,0,0,0,2-2v-47a2,2,0,0,0-2-2h-17a2,2,0,0,0-1.56.75l-2.8,3.5a2,2,0,0,1-1.56.75h-39a2,2,0,0,0-2,2v41A2.92,2.92,0,0,1,92.5,87.5Z"/><circle class="content-default-sidebar-6" cx="129.5" cy="64.5" r="14"/><line class="content-default-sidebar-7" x1="129.5" y1="56.5" x2="129.5" y2="71.5"/><polyline class="content-default-sidebar-8" points="134.5 66.5 129.5 71.5 124.5 66.5"/></g></g></svg>
