<svg xmlns="http://www.w3.org/2000/svg" viewBox="0 0 42 34"><g id="Layer_2" data-name="Layer 2"><g id="Icons"><path style="fill:#fff;" d="M38.33,0H3.67A3.67,3.67,0,0,0,0,3.67V30.33A3.67,3.67,0,0,0,3.67,34H38.33A3.67,3.67,0,0,0,42,30.33V3.67A3.67,3.67,0,0,0,38.33,0ZM3.67,2H38.33A1.67,1.67,0,0,1,40,3.67V22H2V3.67A1.67,1.67,0,0,1,3.67,2ZM38.33,32H3.67A1.67,1.67,0,0,1,2,30.33V24H40v6.33A1.67,1.67,0,0,1,38.33,32Z"/><path style="fill:#fff;" d="M25,27H17a1,1,0,0,0,0,2h8a1,1,0,0,0,0-2Z"/><path style="fill:#fff;" d="M23,7H35v5a1,1,0,0,0,2,0V6a1,1,0,0,0-1-1H23a1,1,0,0,0,0,2Z"/></g></g></svg>