<svg xmlns="http://www.w3.org/2000/svg" viewBox="0 0 20 20">
    <g id="Icons">
        <path d="M10 20C8.02219 20 6.08879 19.4135 4.4443 18.3147C2.79981 17.2159 1.51809 15.6541 0.761209 13.8268C0.00433284 11.9996 -0.193701 9.9889 0.192152 8.04909C0.578004 6.10928 1.53041 4.32745 2.92894 2.92893C4.32746 1.5304 6.10929 0.577996 8.0491 0.192144C9.98891 -0.193708 11.9996 0.00432521 13.8268 0.761202C15.6541 1.51808 17.2159 2.7998 18.3147 4.44429C19.4135 6.08879 20 8.02218 20 10C20 12.6522 18.9464 15.1957 17.0711 17.0711C15.1957 18.9464 12.6522 20 10 20ZM10 2C8.41775 2 6.87104 2.46919 5.55544 3.34824C4.23985 4.22729 3.21447 5.47672 2.60897 6.93853C2.00347 8.40034 1.84504 10.0089 2.15372 11.5607C2.4624 13.1126 3.22433 14.538 4.34315 15.6569C5.46197 16.7757 6.88743 17.5376 8.43928 17.8463C9.99113 18.155 11.5997 17.9965 13.0615 17.391C14.5233 16.7855 15.7727 15.7602 16.6518 14.4446C17.5308 13.129 18 11.5822 18 10C18 7.87827 17.1572 5.84343 15.6569 4.34314C14.1566 2.84285 12.1217 2 10 2V2Z" fill="#B2B7B8" />
        <path d="M6.78516 6.94385C6.78516 5.32333 8.61145 4.3756 9.93651 5.30849L14.2426 8.34014C15.3689 9.13309 15.3752 10.8006 14.2549 11.6021L9.94884 14.6827C8.62526 15.6296 6.78516 14.6835 6.78516 13.0561V6.94385ZM13.0912 9.97549L8.78516 6.94385V13.0561L13.0912 9.97549Z" fill="#B2B7B8" />
    </g>
</svg>