<svg width="250" height="181" viewBox="0 0 250 181" fill="none" xmlns="http://www.w3.org/2000/svg">
<path d="M250 0H0V181H250V0Z" fill="#003865"/>
<path d="M57.5818 88.1212C56.2244 90.0858 54.0436 91.2596 51.7315 91.2596C48.3671 91.2596 45.4029 88.7646 44.6836 85.3273L44.6572 85.2024H61.1023C61.2008 84.5268 61.1728 83.7899 61.1728 83.7899L61.1723 83.7911C61.1723 83.7702 61.1738 83.7479 61.1738 83.7262C61.1738 78.2945 56.9376 73.8745 51.7312 73.8745C46.5262 73.8745 42.2905 78.2944 42.2905 83.7262C42.2905 89.1602 46.5262 93.5796 51.7312 93.5796C55.2776 93.5796 58.4941 91.5327 60.127 88.238L60.3603 87.758H57.8166C57.7282 87.9051 57.6432 88.0327 57.5818 88.1212ZM44.575 82.7669C45.0387 79.0189 48.1151 76.1943 51.7315 76.1943C55.3489 76.1943 58.4257 79.0189 58.8874 82.7669L58.9021 82.8814H44.5614L44.575 82.7669Z" fill="white"/>
<path d="M71.7648 93.5855C70.7173 93.5855 69.7149 93.3957 68.7858 93.0214C67.8637 92.6486 67.0485 92.1086 66.3613 91.4167C65.6602 90.7129 65.1145 89.8751 64.7393 88.9277C64.3504 87.9384 64.1935 86.8599 64.1986 85.7209L64.1985 74.2574H66.3831L66.3828 85.5345C66.3795 86.4167 66.4859 87.2419 66.7723 87.9875C67.0439 88.6975 67.4379 89.3254 67.9436 89.854C68.4352 90.3677 69.0148 90.7674 69.6659 91.0425C70.3265 91.3214 71.0314 91.4627 71.7601 91.4627C72.5054 91.4619 73.213 91.32 73.8727 91.0405C74.5269 90.763 75.1087 90.362 75.6016 89.8476C76.1075 89.3219 76.5043 88.6947 76.7815 87.983C77.0737 87.2334 77.2519 86.4082 77.2534 85.5325V74.2577H79.4337L79.4334 85.7231C79.43 86.8649 79.2001 87.9423 78.8062 88.9246C78.4255 89.8726 77.8768 90.7095 77.1748 91.413C76.4816 92.1062 75.6646 92.6458 74.7451 93.0179C73.8161 93.3937 72.8131 93.5842 71.7648 93.5855Z" fill="white"/>
<path d="M82.5532 93.0729V82.2216C82.5542 81.4145 82.6489 80.6247 82.8346 79.8739C83.0903 78.8329 83.5142 77.9043 84.0946 77.1142C84.8165 76.1308 85.7819 75.3585 86.9638 74.8191C88.3329 74.1964 90.0099 73.8811 91.9483 73.8811H92.3147V76.2396L91.9573 76.2394C90.5437 76.2394 89.331 76.4277 88.3461 76.7983C87.4797 77.1237 86.7666 77.5962 86.2274 78.2026C85.7577 78.732 85.4085 79.3746 85.1893 80.1111C85.0018 80.7423 84.9053 81.4531 84.903 82.2236V93.0728L82.5532 93.0729Z" fill="white"/>
<path d="M127.425 93.0725V83.1594C127.428 82.3916 127.347 81.6783 127.103 81.0397C126.877 80.4461 126.551 79.9236 126.133 79.4857C125.732 79.0656 125.26 78.7383 124.73 78.5136C124.185 78.2836 123.604 78.167 123 78.167C122.388 78.1673 121.8 78.2847 121.256 78.5158C120.722 78.743 120.247 79.0721 119.843 79.4937C119.425 79.9305 119.096 80.4536 118.864 81.0496C118.615 81.6926 118.455 82.4049 118.454 83.167L118.453 93.0732H114.13L114.13 82.969C114.134 81.6641 114.397 80.4297 114.849 79.2997C115.291 78.1961 115.928 77.221 116.744 76.4005C117.551 75.5909 118.501 74.9603 119.569 74.5269C120.64 74.0927 121.793 73.8715 122.994 73.8694C124.198 73.8694 125.351 74.0892 126.421 74.5226C127.494 74.957 128.444 75.5882 129.245 76.3982C130.059 77.2197 130.694 78.1961 131.13 79.3002C131.576 80.4395 131.757 81.6763 131.751 82.9778V93.073L127.425 93.0725Z" fill="white"/>
<path d="M143.304 93.5737C138.097 93.5737 133.864 89.1547 133.864 83.7226C133.864 78.2888 138.097 73.8687 143.304 73.8687C148.509 73.8687 152.744 78.2888 152.744 83.7226C152.744 84.2247 152.706 84.7298 152.633 85.2262L152.61 85.3748H137.869L137.933 85.5772C138.697 87.9965 140.856 89.6226 143.304 89.6226C144.634 89.6226 145.887 89.1467 146.919 88.2473C146.919 88.2473 147.194 88.007 147.229 87.9734H151.823L151.694 88.2355C150.064 91.5276 146.848 93.5737 143.304 93.5737ZM143.304 77.8195C140.856 77.8195 138.698 79.4451 137.933 81.8662L137.869 82.0682H148.736L148.673 81.8662C147.909 79.4451 145.752 77.8195 143.304 77.8195Z" fill="white"/>
<path d="M154.215 74.3698V74.2578H158.897C159.47 78.7951 160.939 85.9894 162.209 89.2419C163.554 85.9894 165.123 78.7949 165.696 74.2578H169.58C170.178 78.7951 171.722 85.6881 173.091 89.2419C174.362 85.688 175.805 78.7949 176.404 74.2578H181.06V74.3699C179.99 81.4538 177.948 88.7375 176.204 93.0729H170.378C169.406 90.7036 168.236 87.0738 167.637 83.8221C167.065 87.0738 165.796 90.9054 164.923 93.0729H159.096C157.053 88.3347 154.833 80.3872 154.215 74.3698Z" fill="white"/>
<path d="M182.985 92.247V88.6535H183.181C184.234 88.9761 186.511 89.4227 188.151 89.4227H189.107C190.624 89.4227 191.774 88.9515 191.774 87.3899C191.774 86.2256 190.77 85.7555 189.668 85.4575L186.804 84.6897C184.699 84.1446 182.985 82.657 182.985 79.4602C182.985 75.6944 186.045 74.1328 189.765 74.1328H190.721C191.871 74.1328 194.173 74.4309 195.225 74.827V78.3953H195.029C194.074 78.1222 191.774 77.8257 190.72 77.8257H189.864C188.518 77.8257 187.366 78.0973 187.366 79.4602C187.366 80.5267 188.151 80.9473 189.106 81.1951L191.97 81.988C194.735 82.7313 196.18 84.3917 196.18 87.3899C196.18 91.5533 193.218 93.1143 189.106 93.1143H188.15C186.705 93.1145 184.306 92.7184 182.985 92.247Z" fill="white"/>
<path d="M206.669 89.1468C206.669 91.3402 204.912 93.1178 202.746 93.1178C200.579 93.1178 198.823 91.3397 198.823 89.1468C198.823 86.9538 200.58 85.1761 202.746 85.1761C204.912 85.1759 206.669 86.954 206.669 89.1468Z" fill="white"/>
<path d="M102.502 73.9137C97.2563 73.9137 93.0037 78.3246 93.0037 83.766C93.0037 89.2075 97.2563 93.6184 102.502 93.6184C107.748 93.6184 112 89.2074 112 83.766C112 78.3249 107.748 73.9137 102.502 73.9137ZM102.502 90.9314C98.8423 90.9314 95.8648 87.717 95.8648 83.7657C95.8648 79.8148 98.8423 76.6002 102.502 76.6002C106.161 76.6002 109.139 79.8148 109.139 83.7657C109.139 87.717 106.161 90.9314 102.502 90.9314Z" fill="white"/>
<path d="M102.632 102.974H45.4116C43.6879 102.974 42.2905 104.37 42.2905 106.092V118.565C42.2905 120.288 43.6879 121.684 45.4116 121.684H102.632C104.356 121.684 105.753 120.288 105.753 118.565V106.092C105.753 104.37 104.356 102.974 102.632 102.974Z" fill="#FF5C27"/>
<path d="M50.9772 115.256H55.0067V116.486H49.435V107.619H50.9772V115.256ZM58.9404 116.486H57.4043V107.619H58.9404V116.486ZM65.0871 114.556L67.3426 107.619H69.0372L65.843 116.486H64.3495L61.1674 107.619H62.856L65.0871 114.556ZM76.3544 112.527H72.7089V115.256H76.97V116.486H71.1667V107.619H76.9273V108.861H72.7089V111.309H76.3544V112.527ZM89.6291 108.861H86.8615V116.486H85.3314V108.861H82.5883V107.619H89.6291V108.861ZM95.1478 114.556L97.4033 107.619H99.0979L95.9037 116.486H94.4102L91.2281 107.619H92.9167L95.1478 114.556Z" fill="white"/>
</svg>
