<?xml version="1.0" encoding="utf-8"?>
<!-- Generator: Adobe Illustrator 19.2.1, SVG Export Plug-In . SVG Version: 6.00 Build 0)  -->
<svg version="1.1" id="Layer_1" xmlns="http://www.w3.org/2000/svg" xmlns:xlink="http://www.w3.org/1999/xlink" x="0px" y="0px"
	 width="22px" height="22px" viewBox="0 0 22 22" enable-background="new 0 0 22 22" xml:space="preserve">
<g>
	<g>
		<path fill="current" d="M20,22H2c-1.1,0-2-0.9-2-2V2c0-1.1,0.9-2,2-2h18c1.1,0,2,0.9,2,2v18C22,21.1,21.1,22,20,22z M2,2L2,2v18
			h18V2H2z"/>
	</g>
	<g>
		<path fill="current" d="M15.5,12h-9c-0.6,0-1-0.4-1-1c0-0.6,0.4-1,1-1h9c0.6,0,1,0.4,1,1C16.5,11.6,16.1,12,15.5,12z"/>
	</g>
</g>
</svg>
