<svg width="340" height="222" viewBox="0 0 340 222" fill="none" xmlns="http://www.w3.org/2000/svg">
<rect width="340" height="222" fill="#f3f5f5"/>
<path d="M133.857 56H206.143C208.757 56 211.264 56.9981 213.113 58.7748C214.961 60.5514 216 62.9611 216 65.4737V134.947C216 135.168 215.992 135.387 215.976 135.605H177.958V114.36H189.823L192.082 100.211H177.958V91.023C177.958 87.1526 179.931 83.3789 186.258 83.3789H192.68V71.3395C192.68 71.3395 186.852 70.3842 181.278 70.3842C169.641 70.3842 162.042 77.1599 162.042 89.4263V100.211H149.105V114.36H162.042V135.605H124.024C124.008 135.387 124 135.168 124 134.947V65.4737C124 62.9611 125.039 60.5514 126.887 58.7748C128.736 56.9981 131.243 56 133.857 56Z" fill="white"/>
<path d="M161.799 152.267C161.799 150.899 161.54 149.85 161.024 149.121C160.513 148.391 159.785 148.027 158.842 148.027C157.921 148.027 157.2 148.391 156.677 149.121C156.161 149.844 155.897 150.87 155.886 152.199V152.911C155.886 154.268 156.147 155.317 156.669 156.058C157.197 156.798 157.927 157.169 158.859 157.169C159.802 157.169 160.527 156.807 161.032 156.083C161.543 155.36 161.799 154.302 161.799 152.911V152.267Z" fill="white"/>
<path d="M132.145 148.145V157.05H133.534C134.652 157.05 135.508 156.7 136.103 155.998C136.704 155.292 137.01 154.28 137.022 152.962V152.275C137.022 150.935 136.732 149.912 136.154 149.205C135.576 148.499 134.736 148.145 133.636 148.145H132.145Z" fill="white"/>
<path fill-rule="evenodd" clip-rule="evenodd" d="M105.312 139.947C102.931 139.947 101 141.891 101 144.289V161.658C101 164.056 102.931 166 105.312 166H234.688C237.069 166 239 164.056 239 161.658V144.289C239 141.891 237.069 139.947 234.688 139.947H105.312ZM163.929 152.911C163.929 154.121 163.722 155.184 163.306 156.1C162.891 157.01 162.295 157.712 161.521 158.203C160.751 158.69 159.864 158.933 158.859 158.933C157.865 158.933 156.978 158.69 156.197 158.203C155.422 157.712 154.822 157.013 154.395 156.109C153.974 155.204 153.76 154.161 153.755 152.979V152.284C153.755 151.08 153.965 150.017 154.386 149.095C154.813 148.174 155.411 147.47 156.18 146.983C156.955 146.492 157.843 146.246 158.842 146.246C159.842 146.246 160.726 146.489 161.495 146.975C162.27 147.456 162.868 148.151 163.289 149.061C163.71 149.966 163.924 151.02 163.929 152.225V152.911ZM118.309 146.415L115.193 156.075L112.11 146.415H109.777L114.173 158.763H116.237L120.651 146.415H118.309ZM123.719 158.763H125.842V146.415H123.719V158.763ZM130.014 158.763V146.415H133.636C134.719 146.415 135.679 146.658 136.516 147.145C137.358 147.631 138.01 148.321 138.47 149.214C138.931 150.107 139.161 151.131 139.161 152.284V152.903C139.161 154.073 138.928 155.102 138.462 155.99C138.001 156.878 137.342 157.562 136.482 158.042C135.629 158.523 134.649 158.763 133.543 158.763H130.014ZM144.967 153.251H150.004V151.555H144.967V148.145H150.796V146.415H142.836V158.763H150.855V157.05H144.967V153.251ZM181.185 151.97H177.984V148.535H175.996V151.97H172.779V153.853H175.996V157.525H177.984V153.853H181.185V151.97ZM192.603 157.05H198.171V158.763H190.472V146.415H192.603V157.05ZM201.484 158.763H203.606V146.415H201.484V158.763ZM212.099 156.075L215.216 146.415H217.557L213.144 158.763H211.08L206.683 146.415H209.016L212.099 156.075ZM222.63 153.251H227.667V151.555H222.63V148.145H228.459V146.415H220.499V158.763H228.518V157.05H222.63V153.251Z" fill="white"/>
</svg>
