<svg width="250" height="181" viewBox="0 0 250 181" fill="none" xmlns="http://www.w3.org/2000/svg">
<path d="M250 0H0V181H250V0Z" fill="#3B7CBE"/>
<path d="M130.536 109.472V94.6927H138.79L140.361 84.85H130.536V78.4583C130.536 75.7659 131.909 73.1407 136.31 73.1407H140.777V64.7654C140.777 64.7654 136.723 64.1009 132.846 64.1009C124.75 64.1009 119.464 68.8144 119.464 77.3476V84.85H110.464V94.6927H119.464V109.472L93 110.127V60.6849C93 58.937 93.7228 57.2607 95.0084 56.0248C96.2946 54.7888 98.0386 54.0945 99.857 54.0945H150.143C151.961 54.0945 153.705 54.7888 154.992 56.0248C156.277 57.2607 157 58.937 157 60.6849V110.405L130.536 109.472Z" fill="white"/>
<path d="M80 108.782C78.3437 108.782 77 110.134 77 111.802V123.885C77 125.553 78.3437 126.905 80 126.905H170.001C171.658 126.905 173 125.553 173 123.885V111.802C173 110.134 171.658 108.782 170.001 108.782H80Z" fill="#FE5C27"/>
<path d="M117.238 113.164C117.933 113.164 118.549 113.332 119.084 113.67C119.623 114.005 120.039 114.488 120.332 115.122C120.624 115.751 120.774 116.484 120.777 117.323V117.8C120.777 118.641 120.633 119.381 120.344 120.018C120.055 120.651 119.64 121.14 119.102 121.482C118.566 121.82 117.949 121.99 117.25 121.99C116.559 121.99 115.941 121.82 115.398 121.482C114.859 121.14 114.442 120.654 114.145 120.025C113.853 119.396 113.703 118.669 113.7 117.847V117.363C113.7 116.526 113.846 115.787 114.139 115.146C114.436 114.505 114.851 114.015 115.386 113.676C115.925 113.334 116.543 113.164 117.238 113.164V113.164ZM83.106 113.281H84.7296L86.8736 120.001L89.0408 113.281H90.6712L87.6005 121.872H86.1644L83.106 113.281ZM92.8043 113.281H94.2813V121.872H92.8043V113.281ZM97.1834 113.281H99.7038C100.457 113.281 101.124 113.45 101.707 113.789C102.292 114.127 102.747 114.606 103.067 115.228C103.387 115.849 103.548 116.561 103.548 117.363V117.794C103.548 118.608 103.385 119.324 103.061 119.942C102.74 120.56 102.282 121.035 101.683 121.369C101.09 121.703 100.408 121.872 99.6386 121.872H97.1834V113.281ZM106.103 113.281H111.641V114.484H107.586V116.857H111.09V118.036H107.586V120.679H111.682V121.872H106.103V113.281ZM139.242 113.281H140.724V120.679H144.598V121.872H139.242V113.281ZM146.902 113.281H148.379V121.872H146.902V113.281ZM150.519 113.281H152.141L154.287 120.001L156.455 113.281H158.083L155.014 121.872H153.577L150.519 113.281ZM160.13 113.281H165.667V114.484H161.613V116.857H165.117V118.036H161.613V120.679H165.708V121.872H160.13V113.281ZM117.238 114.403C116.597 114.403 116.096 114.656 115.732 115.164C115.373 115.667 115.19 116.38 115.182 117.305V117.8C115.182 118.744 115.364 119.474 115.727 119.99C116.094 120.505 116.602 120.761 117.25 120.761C117.906 120.761 118.411 120.51 118.762 120.006C119.118 119.503 119.295 118.767 119.295 117.8V117.353C119.295 116.401 119.116 115.671 118.757 115.164C118.401 114.656 117.894 114.403 117.238 114.403V114.403ZM98.6671 114.484V120.679H99.6332C100.411 120.679 101.006 120.436 101.42 119.948C101.838 119.456 102.051 118.752 102.06 117.835V117.358C102.06 116.426 101.857 115.714 101.455 115.222C101.053 114.731 100.469 114.484 99.7038 114.484H98.6671ZM129.171 114.756H130.554V117.146H132.781V118.456H130.554V121.01H129.171V118.456H126.933V117.146H129.171V114.756Z" fill="white"/>
</svg>
