<?xml version="1.0" encoding="utf-8"?>
<!-- Generator: Adobe Illustrator 19.2.1, SVG Export Plug-In . SVG Version: 6.00 Build 0)  -->
<svg version="1.1" id="Layer_1" xmlns="http://www.w3.org/2000/svg" xmlns:xlink="http://www.w3.org/1999/xlink" x="0px" y="0px" width="32px" height="28px" viewBox="0 0 32 28" enable-background="new 0 0 32 28" xml:space="preserve">
	<g>
		<path fill="current" d="M24,6H2C0.9,6,0,6.9,0,8v18c0,1.1,0.9,2,2,2h22c1.1,0,2-0.9,2-2V8C26,6.9,25.1,6,24,6z M24,8v12H2V8H24z
		 M2,26v-4h22v4H2z" />
		<path fill="current" d="M30,0H8C6.9,0,6,0.9,6,2v1c0,0.6,0.4,1,1,1s1-0.4,1-1V2h22v18h-1c-0.6,0-1,0.4-1,1s0.4,1,1,1h1
		c1.1,0,2-0.9,2-2V2C32,0.9,31.1,0,30,0z" />
	</g>
</svg>
