<svg width="512" height="512" viewBox="0 0 512 512" fill="none" xmlns="http://www.w3.org/2000/svg">
<path d="M0 0H512V512H0V0Z" fill="white"/>
<path d="M21.3385 76.2316V33.7286H26.8143L36.5491 53.9479L46.2839 33.7286H51.7597V76.2316H46.7707V43.565L38.4961 60.7483H34.6022L26.3276 43.6257V76.2316H21.3385Z" fill="black"/>
<path d="M109.512 76.9602C106.065 76.9602 103.104 76.0494 100.629 74.2278C98.1552 72.4063 96.2488 69.8561 94.9103 66.5773C93.6123 63.258 92.9633 59.3923 92.9633 54.9801C92.9633 50.5679 93.6123 46.7224 94.9103 43.4436C96.2488 40.1243 98.1552 37.5539 100.629 35.7323C103.104 33.9108 106.065 33 109.512 33C112.96 33 115.921 33.9108 118.395 35.7323C120.87 37.5539 122.756 40.1243 124.054 43.4436C125.392 46.7224 126.062 50.5679 126.062 54.9801C126.062 59.3923 125.392 63.258 124.054 66.5773C122.756 69.8561 120.87 72.4063 118.395 74.2278C115.921 76.0494 112.96 76.9602 109.512 76.9602ZM109.512 72.1634C112.879 72.1634 115.597 70.6657 117.665 67.6703C119.775 64.6748 120.829 60.4448 120.829 54.9801C120.829 49.5154 119.775 45.2854 117.665 42.2899C115.597 39.2945 112.879 37.7968 109.512 37.7968C106.105 37.7968 103.367 39.2945 101.299 42.2899C99.2301 45.2854 98.1958 49.5154 98.1958 54.9801C98.1958 60.4448 99.2301 64.6748 101.299 67.6703C103.367 70.6657 106.105 72.1634 109.512 72.1634Z" fill="black"/>
<path d="M179.92 76.2316V38.3432H168.482V33.7286H196.47V38.3432H185.031V76.2316H179.92Z" fill="black"/>
<path d="M255.865 76.9602C252.863 76.9602 250.247 76.3935 248.016 75.2601C245.826 74.1267 244.122 72.548 242.906 70.524C241.729 68.5001 241.121 66.132 241.08 63.42H246.434C246.475 65.8487 247.286 67.9536 248.868 69.7347C250.491 71.4753 252.823 72.3456 255.865 72.3456C258.664 72.3456 260.814 71.6777 262.314 70.3419C263.856 68.9656 264.626 67.3262 264.626 65.4237C264.626 63.845 264.261 62.5294 263.531 61.477C262.801 60.384 261.605 59.4328 259.941 58.6232C258.319 57.7731 256.129 56.9028 253.371 56.0123C249.477 54.8384 246.637 53.2395 244.853 51.2155C243.068 49.1916 242.176 46.6819 242.176 43.6865C242.176 41.6625 242.703 39.8409 243.757 38.2218C244.812 36.6026 246.333 35.3275 248.321 34.3965C250.308 33.4655 252.722 33 255.561 33C258.238 33 260.57 33.506 262.558 34.518C264.586 35.4895 266.147 36.8657 267.243 38.6468C268.378 40.4279 268.946 42.4721 268.946 44.7794H263.592C263.592 43.646 263.288 42.5328 262.679 41.4399C262.071 40.3469 261.158 39.4362 259.941 38.7075C258.725 37.9789 257.183 37.6146 255.317 37.6146C253.087 37.6146 251.221 38.1611 249.72 39.254C248.219 40.3065 247.469 41.7637 247.469 43.6257C247.469 45.0425 247.793 46.2366 248.442 47.2081C249.132 48.1796 250.247 49.0702 251.789 49.8797C253.33 50.6488 255.419 51.4787 258.055 52.3692C260.53 53.1788 262.639 54.13 264.383 55.223C266.168 56.2754 267.527 57.591 268.459 59.1697C269.433 60.7483 269.92 62.7116 269.92 65.0594C269.92 67.3667 269.332 69.4108 268.155 71.1919C266.979 72.973 265.336 74.3898 263.227 75.4422C261.118 76.4542 258.664 76.9602 255.865 76.9602Z" fill="black"/>
<path d="M313.618 76.2316V33.7286H318.85L338.198 67.3059V33.7286H343.248V76.2316H337.955L318.607 42.6542V76.2316H313.618Z" fill="black"/>
<path d="M388.65 76.2316V33.7286H415.238V38.4647H393.761V53.28H412.135V57.8339H393.761V76.2316H388.65Z" fill="black"/>
<path d="M459.544 76.2316V33.7286H464.777L484.125 67.3059V33.7286H489.175V76.2316H483.881L464.534 42.6542V76.2316H459.544Z" fill="black"/>
<path d="M36.5491 155.704C33.1014 155.704 30.1404 154.794 27.6661 152.972C25.1919 151.151 23.2855 148.6 21.947 145.322C20.649 142.002 20 138.137 20 133.724C20 129.312 20.649 125.467 21.947 122.188C23.2855 118.869 25.1919 116.298 27.6661 114.477C30.1404 112.655 33.1014 111.744 36.5491 111.744C39.9969 111.744 42.9579 112.655 45.4321 114.477C47.9064 116.298 49.7925 118.869 51.0905 122.188C52.429 125.467 53.0983 129.312 53.0983 133.724C53.0983 138.137 52.429 142.002 51.0905 145.322C49.7925 148.6 47.9064 151.151 45.4321 152.972C42.9579 154.794 39.9969 155.704 36.5491 155.704ZM36.5491 150.908C39.9157 150.908 42.6334 149.41 44.702 146.415C46.8112 143.419 47.8658 139.189 47.8658 133.724C47.8658 128.26 46.8112 124.03 44.702 121.034C42.6334 118.039 39.9157 116.541 36.5491 116.541C33.142 116.541 30.4041 118.039 28.3354 121.034C26.2668 124.03 25.2324 128.26 25.2324 133.724C25.2324 139.189 26.2668 143.419 28.3354 146.415C30.4041 149.41 33.142 150.908 36.5491 150.908Z" fill="black"/>
<path d="M96.2488 154.976V112.473H109.33C112.615 112.473 115.313 113.019 117.422 114.112C119.572 115.205 121.174 116.703 122.229 118.605C123.283 120.468 123.81 122.593 123.81 124.981C123.81 127.774 123.08 130.243 121.62 132.389C120.2 134.493 118.01 135.971 115.049 136.821L124.297 154.976H118.213L109.634 137.55H109.33H101.36V154.976H96.2488ZM101.36 132.874H109.147C112.392 132.874 114.765 132.146 116.266 130.688C117.807 129.191 118.578 127.288 118.578 124.981C118.578 122.552 117.828 120.629 116.327 119.213C114.867 117.796 112.453 117.088 109.087 117.088H101.36V132.874Z" fill="black"/>
<path d="M168.239 154.976V112.473H177.183C184.159 112.473 189.31 114.375 192.636 118.18C196.003 121.985 197.686 127.167 197.686 133.724C197.686 140.282 196.003 145.463 192.636 149.268C189.31 153.073 184.159 154.976 177.183 154.976H168.239ZM173.349 150.301H177.061C180.792 150.301 183.774 149.612 186.005 148.236C188.276 146.86 189.919 144.937 190.933 142.468C191.947 139.999 192.454 137.084 192.454 133.724C192.454 130.365 191.947 127.45 190.933 124.981C189.919 122.512 188.276 120.589 186.005 119.213C183.774 117.836 180.792 117.148 177.061 117.148H173.349V150.301Z" fill="black"/>
<path d="M242.48 154.976V112.473H247.59V150.361H269.19V154.976H242.48Z" fill="black"/>
<path d="M328.828 155.704C325.827 155.704 323.211 155.138 320.98 154.004C318.789 152.871 317.086 151.292 315.869 149.268C314.693 147.244 314.084 144.876 314.044 142.164H319.398C319.438 144.593 320.25 146.698 321.832 148.479C323.454 150.22 325.786 151.09 328.828 151.09C331.627 151.09 333.777 150.422 335.278 149.086C336.819 147.71 337.59 146.07 337.59 144.168C337.59 142.589 337.225 141.274 336.495 140.221C335.764 139.128 334.568 138.177 332.905 137.367C331.282 136.517 329.092 135.647 326.334 134.757C322.44 133.583 319.601 131.984 317.816 129.96C316.031 127.936 315.139 125.426 315.139 122.431C315.139 120.407 315.666 118.585 316.721 116.966C317.775 115.347 319.296 114.072 321.284 113.141C323.271 112.21 325.685 111.744 328.524 111.744C331.201 111.744 333.534 112.25 335.521 113.262C337.549 114.234 339.111 115.61 340.206 117.391C341.342 119.172 341.91 121.216 341.91 123.524H336.555C336.555 122.39 336.251 121.277 335.643 120.184C335.034 119.091 334.122 118.18 332.905 117.452C331.688 116.723 330.147 116.359 328.281 116.359C326.05 116.359 324.184 116.905 322.683 117.998C321.183 119.051 320.432 120.508 320.432 122.37C320.432 123.787 320.757 124.981 321.406 125.952C322.095 126.924 323.211 127.814 324.752 128.624C326.293 129.393 328.382 130.223 331.019 131.113C333.493 131.923 335.602 132.874 337.346 133.967C339.131 135.02 340.49 136.335 341.423 137.914C342.396 139.493 342.883 141.456 342.883 143.804C342.883 146.111 342.295 148.155 341.119 149.936C339.942 151.717 338.3 153.134 336.19 154.186C334.081 155.198 331.627 155.704 328.828 155.704Z" fill="black"/>
<path d="M401.67 155.704C398.222 155.704 395.241 154.794 392.726 152.972C390.252 151.151 388.346 148.6 387.007 145.322C385.709 142.043 385.06 138.177 385.06 133.724C385.06 129.312 385.709 125.467 387.007 122.188C388.346 118.869 390.252 116.298 392.726 114.477C395.241 112.655 398.222 111.744 401.67 111.744C406.051 111.744 409.58 112.959 412.257 115.387C414.934 117.776 416.495 120.973 416.942 124.981H411.283C410.878 122.593 409.864 120.589 408.241 118.97C406.619 117.351 404.428 116.541 401.67 116.541C398.141 116.541 395.363 118.079 393.335 121.156C391.307 124.192 390.293 128.381 390.293 133.724C390.293 139.108 391.307 143.318 393.335 146.354C395.363 149.39 398.141 150.908 401.67 150.908C404.55 150.908 406.761 150.139 408.302 148.6C409.884 147.062 410.878 145.079 411.283 142.65H416.942C416.293 146.698 414.67 149.896 412.074 152.243C409.519 154.551 406.051 155.704 401.67 155.704Z" fill="black"/>
<path d="M458.084 154.976L471.409 112.473H477.31L490.574 154.976H484.977L481.874 144.411H466.785L463.682 154.976H458.084ZM474.207 119.638L468.062 140.161H480.596L474.451 119.638H474.207Z" fill="black"/>
<path d="M23.5289 233.72V191.217H50.117V195.832H28.6396V209.979H48.2917V214.594H28.6396V229.106H50.117V233.72H23.5289Z" fill="black"/>
<path d="M96.7964 233.72V191.217H123.385V195.953H101.907V210.769H120.282V215.322H101.907V233.72H96.7964Z" fill="black"/>
<path d="M166.718 233.72L179.555 212.469L166.718 191.217H172.559L182.597 207.854L192.393 191.217H198.234L185.335 212.408L198.234 233.72H192.393L182.293 217.023L172.559 233.72H166.718Z" fill="black"/>
<path d="M240.229 233.72V191.217H245.704L255.439 211.436L265.174 191.217H270.65V233.72H265.661V201.054L257.386 218.237H253.492L245.218 201.114V233.72H240.229Z" fill="black"/>
<path d="M315.382 233.72V191.217H341.97V195.832H320.493V209.979H340.145V214.594H320.493V229.106H341.97V233.72H315.382Z" fill="black"/>
<path d="M386.581 233.72V191.217H391.814L411.161 224.794V191.217H416.211V233.72H410.918L391.57 200.143V233.72H386.581Z" fill="black"/>
<path d="M458.084 233.72L471.409 191.217H477.31L490.574 233.72H484.977L481.874 223.155H466.785L463.682 233.72H458.084ZM474.207 198.382L468.062 218.905H480.596L474.451 198.382H474.207Z" fill="black"/>
<path d="M33.9938 312.464V295.767L20.1825 269.961H25.9626L36.5491 290.606L47.1357 269.961H52.9157L39.1045 295.767V312.464H33.9938Z" fill="black"/>
<path d="M109.817 313.193C106.369 313.193 103.388 312.282 100.873 310.461C98.3986 308.639 96.4922 306.089 95.1537 302.81C93.8557 299.531 93.2067 295.666 93.2067 291.213C93.2067 286.801 93.8557 282.955 95.1537 279.676C96.4922 276.357 98.3986 273.787 100.873 271.965C103.388 270.144 106.369 269.233 109.817 269.233C114.197 269.233 117.726 270.447 120.403 272.876C123.08 275.264 124.642 278.462 125.088 282.469H119.43C119.024 280.081 118.01 278.077 116.388 276.458C114.765 274.839 112.575 274.03 109.817 274.03C106.288 274.03 103.509 275.568 101.481 278.644C99.4532 281.68 98.4392 285.87 98.4392 291.213C98.4392 296.597 99.4532 300.806 101.481 303.842C103.509 306.878 106.288 308.396 109.817 308.396C112.697 308.396 114.907 307.627 116.449 306.089C118.03 304.551 119.024 302.567 119.43 300.139H125.088C124.439 304.186 122.817 307.384 120.221 309.732C117.665 312.039 114.197 313.193 109.817 313.193Z" fill="black"/>
<path d="M166.231 312.464L179.555 269.961H185.457L198.721 312.464H193.123L190.02 301.899H174.931L171.828 312.464H166.231ZM182.354 277.126L176.209 297.649H188.743L182.597 277.126H182.354Z" fill="black"/>
<path d="M255.743 313.193C252.296 313.193 249.314 312.282 246.8 310.461C244.325 308.639 242.419 306.089 241.08 302.81C239.782 299.531 239.133 295.666 239.133 291.213C239.133 286.801 239.782 282.955 241.08 279.676C242.419 276.357 244.325 273.787 246.8 271.965C249.314 270.144 252.296 269.233 255.743 269.233C260.124 269.233 263.653 270.447 266.33 272.876C269.007 275.264 270.569 278.462 271.015 282.469H265.356C264.951 280.081 263.937 278.077 262.314 276.458C260.692 274.839 258.502 274.03 255.743 274.03C252.215 274.03 249.436 275.568 247.408 278.644C245.38 281.68 244.366 285.87 244.366 291.213C244.366 296.597 245.38 300.806 247.408 303.842C249.436 306.878 252.215 308.396 255.743 308.396C258.623 308.396 260.834 307.627 262.375 306.089C263.957 304.551 264.951 302.567 265.356 300.139H271.015C270.366 304.186 268.743 307.384 266.147 309.732C263.592 312.039 260.124 313.193 255.743 313.193Z" fill="black"/>
<path d="M313.009 312.464V269.961H318.12V288.298H338.746V269.961H343.856V312.464H338.746V292.913H318.12V312.464H313.009Z" fill="black"/>
<path d="M388.346 312.464V269.961H414.934V274.576H393.456V288.723H413.108V293.338H393.456V307.85H414.934V312.464H388.346Z" fill="black"/>
<path d="M474.755 313.193C471.754 313.193 469.137 312.626 466.906 311.493C464.716 310.359 463.012 308.781 461.796 306.757C460.619 304.733 460.011 302.365 459.97 299.653H465.325C465.365 302.082 466.176 304.186 467.758 305.968C469.381 307.708 471.713 308.578 474.755 308.578C477.554 308.578 479.704 307.91 481.204 306.575C482.746 305.198 483.516 303.559 483.516 301.656C483.516 300.078 483.151 298.762 482.421 297.71C481.691 296.617 480.495 295.666 478.832 294.856C477.209 294.006 475.019 293.136 472.261 292.245C468.367 291.071 465.527 289.472 463.743 287.448C461.958 285.424 461.066 282.915 461.066 279.919C461.066 277.895 461.593 276.074 462.647 274.455C463.702 272.835 465.223 271.56 467.211 270.629C469.198 269.698 471.612 269.233 474.451 269.233C477.128 269.233 479.46 269.739 481.448 270.751C483.476 271.722 485.037 273.099 486.133 274.88C487.268 276.661 487.836 278.705 487.836 281.012H482.482C482.482 279.879 482.178 278.766 481.569 277.673C480.961 276.58 480.048 275.669 478.832 274.94C477.615 274.212 476.073 273.847 474.207 273.847C471.977 273.847 470.111 274.394 468.61 275.487C467.109 276.539 466.359 277.997 466.359 279.859C466.359 281.275 466.683 282.469 467.332 283.441C468.022 284.412 469.137 285.303 470.679 286.113C472.22 286.882 474.309 287.711 476.945 288.602C479.42 289.412 481.529 290.363 483.273 291.456C485.058 292.508 486.417 293.824 487.349 295.402C488.323 296.981 488.81 298.944 488.81 301.292C488.81 303.599 488.222 305.644 487.045 307.425C485.869 309.206 484.226 310.623 482.117 311.675C480.008 312.687 477.554 313.193 474.755 313.193Z" fill="black"/>
<path d="M22.7988 391.209V348.706H36.975C40.22 348.706 42.8767 349.293 44.9454 350.467C47.014 351.64 48.5351 353.199 49.5086 355.142C50.482 357.085 50.9688 359.23 50.9688 361.578C50.9688 363.926 50.482 366.071 49.5086 368.014C48.5351 369.957 47.014 371.516 44.9454 372.69C42.8767 373.863 40.22 374.45 36.975 374.45H27.9095V391.209H22.7988ZM27.9095 369.775H36.8533C39.8549 369.775 42.0858 369.026 43.546 367.528C45.0062 365.99 45.7363 364.007 45.7363 361.578C45.7363 359.149 45.0062 357.166 43.546 355.628C42.0858 354.089 39.8549 353.32 36.8533 353.32H27.9095V369.775Z" fill="black"/>
<path d="M94.7278 391.209V348.706H99.9602L119.308 382.283V348.706H124.358V391.209H119.065L99.7169 357.631V391.209H94.7278Z" fill="black"/>
<path d="M169.456 391.209V348.706H196.044V353.32H174.566V367.468H194.218V372.082H174.566V386.594H196.044V391.209H169.456Z" fill="black"/>
<path d="M255.743 391.937C252.296 391.937 249.314 391.027 246.8 389.205C244.325 387.383 242.419 384.833 241.08 381.554C239.782 378.276 239.133 374.41 239.133 369.957C239.133 365.545 239.782 361.699 241.08 358.421C242.419 355.101 244.325 352.531 246.8 350.709C249.314 348.888 252.296 347.977 255.743 347.977C260.124 347.977 263.653 349.191 266.33 351.62C269.007 354.008 270.569 357.206 271.015 361.214H265.356C264.951 358.825 263.937 356.822 262.314 355.203C260.692 353.583 258.502 352.774 255.743 352.774C252.215 352.774 249.436 354.312 247.408 357.388C245.38 360.424 244.366 364.614 244.366 369.957C244.366 375.341 245.38 379.551 247.408 382.587C249.436 385.623 252.215 387.141 255.743 387.141C258.623 387.141 260.834 386.371 262.375 384.833C263.957 383.295 264.951 381.312 265.356 378.883H271.015C270.366 382.931 268.743 386.129 266.147 388.476C263.592 390.784 260.124 391.937 255.743 391.937Z" fill="black"/>
<path d="M315.443 391.209V348.706H320.554V386.594H342.153V391.209H315.443Z" fill="black"/>
<path d="M401.792 391.937C398.79 391.937 396.174 391.371 393.943 390.237C391.753 389.104 390.049 387.525 388.832 385.501C387.656 383.477 387.048 381.109 387.007 378.397H392.361C392.402 380.826 393.213 382.931 394.795 384.712C396.417 386.452 398.75 387.323 401.792 387.323C404.591 387.323 406.74 386.655 408.241 385.319C409.782 383.943 410.553 382.303 410.553 380.401C410.553 378.822 410.188 377.507 409.458 376.454C408.728 375.361 407.531 374.41 405.868 373.6C404.246 372.75 402.055 371.88 399.297 370.989C395.403 369.816 392.564 368.217 390.779 366.193C388.995 364.169 388.102 361.659 388.102 358.664C388.102 356.64 388.629 354.818 389.684 353.199C390.739 351.58 392.26 350.305 394.247 349.374C396.235 348.443 398.648 347.977 401.488 347.977C404.165 347.977 406.497 348.483 408.484 349.495C410.512 350.467 412.074 351.843 413.169 353.624C414.305 355.405 414.873 357.449 414.873 359.756H409.519C409.519 358.623 409.215 357.51 408.606 356.417C407.998 355.324 407.085 354.413 405.868 353.685C404.651 352.956 403.11 352.592 401.244 352.592C399.013 352.592 397.147 353.138 395.647 354.231C394.146 355.284 393.396 356.741 393.396 358.603C393.396 360.02 393.72 361.214 394.369 362.185C395.059 363.157 396.174 364.047 397.715 364.857C399.257 365.626 401.346 366.456 403.982 367.346C406.456 368.156 408.566 369.107 410.31 370.2C412.094 371.253 413.453 372.568 414.386 374.147C415.36 375.725 415.846 377.689 415.846 380.036C415.846 382.344 415.258 384.388 414.082 386.169C412.906 387.95 411.263 389.367 409.154 390.419C407.044 391.431 404.591 391.937 401.792 391.937Z" fill="black"/>
<path d="M474.816 391.937C470.638 391.937 467.434 390.763 465.203 388.416C462.972 386.027 461.856 382.749 461.856 378.579H467.028C467.069 380.967 467.697 383.012 468.914 384.712C470.131 386.371 472.078 387.201 474.755 387.201C477.432 387.201 479.339 386.392 480.474 384.773C481.651 383.153 482.239 381.129 482.239 378.701V348.706H487.349V378.701C487.349 382.951 486.254 386.23 484.064 388.537C481.874 390.804 478.791 391.937 474.816 391.937Z" fill="black"/>
<path d="M33.9938 469.953V453.255L20.1825 427.45H25.9626L36.5491 448.094L47.1357 427.45H52.9157L39.1045 453.255V469.953H33.9938Z" fill="black"/>
<path d="M95.7621 469.953V427.45H109.938C113.183 427.45 115.84 428.037 117.909 429.211C119.977 430.385 121.498 431.943 122.472 433.886C123.445 435.829 123.932 437.975 123.932 440.322C123.932 442.67 123.445 444.815 122.472 446.758C121.498 448.701 119.977 450.26 117.909 451.434C115.84 452.608 113.183 453.195 109.938 453.195H100.873V469.953H95.7621ZM100.873 448.519H109.817C112.818 448.519 115.049 447.77 116.509 446.273C117.97 444.735 118.7 442.751 118.7 440.322C118.7 437.894 117.97 435.91 116.509 434.372C115.049 432.834 112.818 432.065 109.817 432.065H100.873V448.519Z" fill="black"/>
<path d="M166.718 469.953L179.555 448.701L166.718 427.45H172.559L182.597 444.087L192.393 427.45H198.234L185.335 448.641L198.234 469.953H192.393L182.293 453.255L172.559 469.953H166.718Z" fill="black"/>
<path d="M255.439 470.682C251.991 470.682 249.03 469.771 246.556 467.949C244.082 466.128 242.176 463.578 240.837 460.299C239.539 456.979 238.89 453.114 238.89 448.701C238.89 444.289 239.539 440.444 240.837 437.165C242.176 433.846 244.082 431.275 246.556 429.454C249.03 427.632 251.991 426.721 255.439 426.721C258.887 426.721 261.848 427.632 264.322 429.454C266.796 431.275 268.683 433.846 269.98 437.165C271.319 440.444 271.988 444.289 271.988 448.701C271.988 453.761 271.116 458.093 269.372 461.695C267.628 465.257 265.194 467.787 262.071 469.285L271.197 479H264.505L256.717 470.621C256.271 470.661 255.845 470.682 255.439 470.682ZM255.439 465.885C258.806 465.885 261.523 464.387 263.592 461.392C265.701 458.396 266.756 454.166 266.756 448.701C266.756 443.237 265.701 439.007 263.592 436.011C261.523 433.016 258.806 431.518 255.439 431.518C252.032 431.518 249.294 433.016 247.225 436.011C245.157 439.007 244.122 443.237 244.122 448.701C244.122 454.166 245.157 458.396 247.225 461.392C249.294 464.387 252.032 465.885 255.439 465.885Z" fill="black"/>
<path d="M316.782 469.953L310.271 427.45H315.443L319.763 460.238L325.786 427.45H331.019L337.042 460.238L341.362 427.45H346.534L340.023 469.953H334.183L328.403 437.286L322.622 469.953H316.782Z" fill="black"/>
<path d="M389.137 469.953V465.52H398.81V431.882H389.137V427.45H413.595V431.882H403.921V465.52H413.595V469.953H389.137Z" fill="black"/>
<path d="M471.287 469.953L457.719 427.45H463.195L474.329 463.335L485.463 427.45H491L477.371 469.953H471.287Z" fill="black"/>
<rect x="2.5" y="22.5" width="284" height="66" rx="10.5" stroke="black" stroke-width="5"/>
<rect x="81.5" y="258.5" width="421" height="66" rx="10.5" stroke="black" stroke-width="5"/>
</svg>
