<svg xmlns="http://www.w3.org/2000/svg" width="22" height="22" viewBox="0 0 22 22"><g id="Layer_2" data-name="Layer 2"><g id="Icons"><path style="fill: current; stroke:none;" d="M8,14v6H2V14H8m1-2H1a1,1,0,0,0-1,1v8a1,1,0,0,0,1,1H9a1,1,0,0,0,1-1V13a1,1,0,0,0-1-1Z"/><path style="fill: current; stroke:none;" d="M20,14v6H14V14h6m1-2H13a1,1,0,0,0-1,1v8a1,1,0,0,0,1,1h8a1,1,0,0,0,1-1V13a1,1,0,0,0-1-1Z"/><path style="fill: current; stroke:none;" d="M8,2V8H2V2H8M9,0H1A1,1,0,0,0,0,1V9a1,1,0,0,0,1,1H9a1,1,0,0,0,1-1V1A1,1,0,0,0,9,0Z"/><line style="fill:none;stroke: current;stroke-linecap:round;stroke-linejoin:round;stroke-width:2px;" x1="14" y1="5" x2="20" y2="5"/></g></g></svg>