<svg xmlns="http://www.w3.org/2000/svg" viewBox="0 0 340 222" width="340" height="222" version="1.1">
 <g>
  <rect style="fill:#f3f5f5" width="100%" height="100%" x="0" y="0"/>
  <path d="m 170,61 c -13.579,0 -15.283,0.059 -20.617,0.3 a 36.693,36.693 0 0 0 -12.136,2.323 25.577,25.577 0 0 0 -14.623,14.624 36.523,36.523 0 0 0 -2.324,12.135 c -0.237,5.334 -0.3,7.039 -0.3,20.618 0,13.579 0.06,15.278 0.3,20.611 a 36.746,36.746 0 0 0 2.323,12.135 25.587,25.587 0 0 0 14.621,14.628 36.724,36.724 0 0 0 12.14,2.326 c 5.333,0.243 7.037,0.3 20.615,0.3 13.578,0 15.279,-0.059 20.613,-0.3 a 36.746,36.746 0 0 0 12.142,-2.323 25.618,25.618 0 0 0 14.622,-14.627 37.061,37.061 0 0 0 2.324,-12.138 c 0.24,-5.333 0.3,-7.033 0.3,-20.612 0,-13.579 -0.062,-15.283 -0.3,-20.617 A 37.043,37.043 0 0 0 217.377,78.248 25.581,25.581 0 0 0 202.75,63.625 36.807,36.807 0 0 0 190.6,61.3 C 185.267,61.057 183.569,61 169.985,61 Z m -4.485,9.01 H 170 c 13.35,0 14.932,0.048 20.2,0.287 a 27.682,27.682 0 0 1 9.283,1.722 16.568,16.568 0 0 1 9.488,9.49 27.627,27.627 0 0 1 1.722,9.281 c 0.24,5.271 0.292,6.854 0.292,20.2 0,13.346 -0.052,14.927 -0.292,20.2 a 27.654,27.654 0 0 1 -1.722,9.281 16.581,16.581 0 0 1 -9.488,9.483 27.581,27.581 0 0 1 -9.283,1.723 c -5.271,0.24 -6.854,0.292 -20.2,0.292 -13.346,0 -14.933,-0.052 -20.2,-0.292 a 27.736,27.736 0 0 1 -9.284,-1.724 16.565,16.565 0 0 1 -9.492,-9.486 27.627,27.627 0 0 1 -1.724,-9.285 c -0.24,-5.271 -0.288,-6.854 -0.288,-20.206 0,-13.352 0.048,-14.927 0.288,-20.2 a 27.682,27.682 0 0 1 1.722,-9.283 16.57,16.57 0 0 1 9.494,-9.493 27.622,27.622 0 0 1 9.284,-1.721 c 4.613,-0.208 6.4,-0.271 15.719,-0.281 z m 31.175,8.3 a 6,6 0 1 0 6,6 6,6 0 0 0 -6,-6 z M 170,85.323 A 25.674,25.674 0 1 0 195.678,111 25.678,25.678 0 0 0 170,85.323 Z m 0,9.01 A 16.667,16.667 0 1 1 153.338,111 16.667,16.667 0 0 1 170,94.333 Z" style="fill:#ffffff"/>
 </g>
</svg>