<svg xmlns="http://www.w3.org/2000/svg" width="30" height="30" viewBox="0 0 32 34">
    <g id="Icons">
        <path style="fill: #bec4c4;" d="M16,22a4.39,4.39,0,0,1-2.38-.7L1.3,13.38a2.83,2.83,0,0,1,0-4.76L13.62.7A4.38,4.38,0,0,1,16,0h0a4.39,4.39,0,0,1,2.38.7L30.7,8.62a2.83,2.83,0,0,1,0,4.76L18.38,21.3A4.38,4.38,0,0,1,16,22ZM16,2a2.4,2.4,0,0,0-1.3.38L2.38,10.3a.83.83,0,0,0,0,1.4L14.7,19.62a2.44,2.44,0,0,0,2.6,0L29.62,11.7a.83.83,0,0,0,0-1.4L17.3,2.38A2.4,2.4,0,0,0,16,2Z" />
        <path style="fill: #bec4c4;" d="M16,28a4.39,4.39,0,0,1-2.38-.7L1.3,19.38A2.82,2.82,0,0,1,0,17a1,1,0,0,1,2,0,.83.83,0,0,0,.38.7L14.7,25.62a2.44,2.44,0,0,0,2.6,0L29.62,17.7A.83.83,0,0,0,30,17a1,1,0,0,1,2,0,2.82,2.82,0,0,1-1.3,2.38L18.38,27.3A4.38,4.38,0,0,1,16,28Z" />
        <path style="fill: #bec4c4;" d="M16,34a4.39,4.39,0,0,1-2.38-.7L1.3,25.38A2.82,2.82,0,0,1,0,23a1,1,0,0,1,2,0,.83.83,0,0,0,.38.7L14.7,31.62a2.44,2.44,0,0,0,2.6,0L29.62,23.7A.83.83,0,0,0,30,23a1,1,0,0,1,2,0,2.82,2.82,0,0,1-1.3,2.38L18.38,33.3A4.38,4.38,0,0,1,16,34Z" />
        <path style="fill: #bec4c4;" d="M24,12a1,1,0,0,1-.53-.15l-8-5a1,1,0,1,1,1.06-1.7l8,5A1,1,0,0,1,24,12Z" />
    </g>
</svg>