<svg xmlns="http://www.w3.org/2000/svg" width="26" height="24" viewBox="0 0 26 24"><g id="Layer_2" data-name="Layer 2"><g id="Icons"><path style="fill:current;" d="M13,14a1,1,0,0,1-.45-.11l-12-6a1,1,0,0,1,0-1.78l12-6a1,1,0,0,1,.9,0l12,6a1,1,0,0,1,0,1.78l-12,6A1,1,0,0,1,13,14ZM3.24,7,13,11.88,22.76,7,13,2.12Zm14.65.45a1,1,0,0,0-.44-1.34l-4-2a1,1,0,0,0-.9,1.78l4,2A.93.93,0,0,0,17,8,1,1,0,0,0,17.89,7.45ZM13.45,18.89l12-6a1,1,0,1,0-.9-1.78L13,16.88,1.45,11.11a1,1,0,0,0-.9,1.78l12,6a1,1,0,0,0,.9,0Zm0,5,12-6a1,1,0,1,0-.9-1.78L13,21.88,1.45,16.11a1,1,0,0,0-.9,1.78l12,6a1,1,0,0,0,.9,0Z"/></g></g></svg>