<svg width="42" height="42" viewBox="0 0 42 42" fill="none" xmlns="http://www.w3.org/2000/svg">
  <rect width="42" height="42" rx="2" fill="#E8EDED"></rect>
  <path fill-rule="evenodd" clip-rule="evenodd" d="M15.7074 12.7071C16.0979 12.3166 16.0979 11.6835 15.7074 11.2929C15.3169 10.9024 14.6837 10.9024 14.2932 11.2929L12.0002 13.5858L10.7074 12.2929C10.3169 11.9024 9.68376 11.9024 9.29322 12.2929C8.90268 12.6834 8.90265 13.3165 9.29315 13.7071L11.293 15.7071C11.4805 15.8946 11.7348 16 12.0001 16C12.2653 16 12.5196 15.8947 12.7072 15.7071L15.7074 12.7071ZM15.7074 19.7071C16.0979 19.3166 16.0979 18.6835 15.7074 18.2929C15.3169 17.9024 14.6837 17.9024 14.2932 18.2929L12.0002 20.5858L10.7074 19.2929C10.3169 18.9024 9.68376 18.9024 9.29322 19.2929C8.90268 19.6834 8.90265 20.3165 9.29315 20.7071L11.293 22.7071C11.4805 22.8946 11.7348 23 12.0001 23C12.2653 23 12.5196 22.8947 12.7072 22.7071L15.7074 19.7071ZM15.7071 26.7071C16.0976 26.3166 16.0976 25.6835 15.7071 25.2929C15.3166 24.9024 14.6835 24.9024 14.2929 25.2929L11.9999 27.5858L10.7071 26.2929C10.3166 25.9024 9.68347 25.9024 9.29293 26.2929C8.90238 26.6834 8.90235 27.3165 9.29286 27.7071L11.2927 29.7071C11.4802 29.8946 11.7345 30 11.9998 30C12.265 30 12.5193 29.8947 12.7069 29.7071L15.7071 26.7071ZM19 13C18.4477 13 18 13.4477 18 14C18 14.5523 18.4477 15 19 15H32C32.5523 15 33 14.5523 33 14C33 13.4477 32.5523 13 32 13H19ZM19 20C18.4477 20 18 20.4477 18 21C18 21.5523 18.4477 22 19 22H32C32.5523 22 33 21.5523 33 21C33 20.4477 32.5523 20 32 20H19ZM19 27C18.4477 27 18 27.4477 18 28C18 28.5523 18.4477 29 19 29H32C32.5523 29 33 28.5523 33 28C33 27.4477 32.5523 27 32 27H19Z" fill="#BEC4C4"></path>
</svg>