<svg xmlns="http://www.w3.org/2000/svg" width="96" height="96" viewBox="0 0 96 96">
<circle cx="48" cy="48" r="48" fill="#e3e3e3"/>
<path fill="#FFFFFF" d="M 15.301,78.3536 C 18.057975,70.53 24.926516,64.6453 33.312096,63.294 37.635996,68.091 43.311897,71 48.000397,71 c 4.6884,0 10.364301,-2.909 14.688101,-7.7059 8.3855,1.3516 15.253801,7.236401 18.010502,15.060101 C 72.361398,86.78 60.790498,92 48.000297,92 35.209796,92 23.638616,86.7798 15.301,78.3536 Z M 66.000398,46.595101 C 66.000398,58.2551 55.500397,67 48.000397,67 40.500397,67 30.000396,58.2551 30.000396,46.595101 30.000396,34.93522 38.059296,27 48.000397,27 c 9.941101,0 18.000001,7.93522 18.000001,19.595101 z"/>
</svg>