<svg xmlns="http://www.w3.org/2000/svg" width="250" height="110" viewBox="0 0 250 110"><defs><style>.playlist-default-sidebar-1,.playlist-default-sidebar-7{fill:none;stroke-linecap:round;}.playlist-default-sidebar-1{stroke:#F00020;}.playlist-default-sidebar-1,.playlist-default-sidebar-3,.playlist-default-sidebar-4,.playlist-default-sidebar-5,.playlist-default-sidebar-6,.playlist-default-sidebar-7{stroke-miterlimit:10;}.playlist-default-sidebar-2{fill:#e6ebf0;}.playlist-default-sidebar-3,.playlist-default-sidebar-5{fill:#d9dfe0;}.playlist-default-sidebar-3,.playlist-default-sidebar-4{stroke:#84898a;}.playlist-default-sidebar-4,.playlist-default-sidebar-6{fill:#fff;}.playlist-default-sidebar-5{stroke:#fff;}.playlist-default-sidebar-6,.playlist-default-sidebar-7{stroke:#F00020;}</style></defs><title>ill_Playlists_Settings</title><g id="Layer_2" data-name="Layer 2"><g id="Icons"><line class="playlist-default-sidebar-1" x1="26.5" y1="101.5" x2="26.5" y2="109.5"/><line class="playlist-default-sidebar-1" x1="22.5" y1="105.5" x2="30.5" y2="105.5"/><line class="playlist-default-sidebar-1" x1="6.5" y1="77.5" x2="6.5" y2="89.5"/><line class="playlist-default-sidebar-1" x1="0.5" y1="83.5" x2="12.5" y2="83.5"/><circle class="playlist-default-sidebar-2" cx="237" cy="13" r="13"/><path class="playlist-default-sidebar-2" d="M213,42H190a8,8,0,0,1,0-16h5a13,13,0,0,0,0-26H55a13,13,0,0,0,0,26h1a8,8,0,0,1,0,16H33A13,13,0,0,0,20,55h0A13,13,0,0,0,33,68H56a8,8,0,0,1,0,16H51a13,13,0,0,0,0,26H191a13,13,0,0,0,0-26h-1a8,8,0,0,1,0-16h23a13,13,0,0,0,13-13h0A13,13,0,0,0,213,42Z"/><rect class="playlist-default-sidebar-3" x="75.5" y="15.5" width="40" height="36" rx="2" ry="2"/><path class="playlist-default-sidebar-4" d="M77.5,15.5h36a2,2,0,0,1,2,2v22a0,0,0,0,1,0,0h-40a0,0,0,0,1,0,0v-22A2,2,0,0,1,77.5,15.5Z"/><rect class="playlist-default-sidebar-3" x="75.5" y="60.5" width="40" height="36" rx="2" ry="2"/><rect class="playlist-default-sidebar-4" x="124.5" y="60.5" width="40" height="36" rx="2" ry="2"/><path class="playlist-default-sidebar-4" d="M77.5,60.5h36a2,2,0,0,1,2,2v22a0,0,0,0,1,0,0h-40a0,0,0,0,1,0,0v-22A2,2,0,0,1,77.5,60.5Z"/><rect class="playlist-default-sidebar-5" x="124.5" y="15.5" width="40" height="36" rx="2" ry="2"/><rect class="playlist-default-sidebar-3" x="134.5" y="5.5" width="40" height="36" rx="2" ry="2"/><path class="playlist-default-sidebar-4" d="M136.5,5.5h36a2,2,0,0,1,2,2v22a0,0,0,0,1,0,0h-40a0,0,0,0,1,0,0V7.5A2,2,0,0,1,136.5,5.5Z"/><circle class="playlist-default-sidebar-6" cx="144.5" cy="78.5" r="10"/><line class="playlist-default-sidebar-7" x1="144.5" y1="75.5" x2="144.5" y2="81.5"/><line class="playlist-default-sidebar-7" x1="141.5" y1="78.5" x2="147.5" y2="78.5"/></g></g></svg>
