<svg xmlns="http://www.w3.org/2000/svg" width="26" height="24" viewBox="0 0 26 24">
    <g id="Layer_2" data-name="Layer 2">
        <g id="Icons">
            <path fill="#f00020ad" d="M13,14a1,1,0,0,1-.45-.11l-12-6a1,1,0,0,1,0-1.78l12-6a1,1,0,0,1,.9,0l12,6a1,1,0,0,1,0,1.78l-12,6A1,1,0,0,1,13,14ZM3.24,7,13,11.88,22.76,7,13,2.12Z" />
            <path fill="#f00020ad" d="M17,8a.93.93,0,0,1-.45-.11l-4-2a1,1,0,0,1,.9-1.78l4,2a1,1,0,0,1,.44,1.34A1,1,0,0,1,17,8Z" />
            <path fill="#d9dfe0" d="M13,19a1,1,0,0,1-.45-.11l-12-6a1,1,0,0,1,.9-1.78L13,16.88l11.55-5.77a1,1,0,1,1,.9,1.78l-12,6A1,1,0,0,1,13,19Z" />
            <path fill="#d9dfe0" d="M13,24a1,1,0,0,1-.45-.11l-12-6a1,1,0,0,1,.9-1.78L13,21.88l11.55-5.77a1,1,0,1,1,.9,1.78l-12,6A1,1,0,0,1,13,24Z" />
        </g>
    </g>
</svg>