<svg width="464" height="338" viewBox="0 0 464 338" fill="none" xmlns="http://www.w3.org/2000/svg">
<path d="M81.9068 252.91V231.129C81.9068 222.586 85.7618 217.704 94.2239 217.704C95.3522 217.704 96.5745 217.798 97.7968 217.985V206.907C97.3267 206.813 96.1984 206.626 94.8821 206.626C88.8646 206.626 83.7873 209.536 81.6247 214.512V207.189H71V252.91H81.9068ZM108.359 198.176C112.308 198.176 115.505 195.078 115.505 191.135C115.505 187.192 112.308 184 108.359 184C104.504 184 101.307 187.192 101.307 191.135C101.307 195.078 104.504 198.176 108.359 198.176ZM113.812 252.91V207.189H102.999V252.91H113.812ZM134.905 252.91V226.529C134.905 220.52 138.196 215.732 144.401 215.732C151.265 215.732 153.804 220.239 153.804 225.872V252.91H164.711V223.994C164.711 213.948 159.351 205.875 148.162 205.875C143.085 205.875 137.632 208.034 134.623 213.291V207.189H123.998V252.91H134.905ZM192.573 272.156C209.779 272.156 216.079 260.796 216.079 248.591V207.189H205.548V213.01C203.574 209.254 199.155 206.344 192.009 206.344C179.41 206.344 170.853 216.389 170.853 228.594C170.853 241.456 179.786 250.844 192.009 250.844C198.685 250.844 203.292 247.746 205.266 244.179V248.967C205.266 258.261 200.941 262.673 192.291 262.673C185.991 262.673 181.572 258.449 180.82 252.816L170.759 255.444C171.982 264.645 180.444 272.156 192.573 272.156ZM193.795 241.55C186.649 241.55 181.854 236.574 181.854 228.594C181.854 220.802 186.838 215.732 193.795 215.732C200.565 215.732 205.548 220.802 205.548 228.594C205.548 236.48 200.753 241.55 193.795 241.55ZM245.634 254.318C259.361 254.318 269.422 244.085 269.422 230.002C269.422 216.014 259.361 205.781 245.634 205.781C232 205.781 221.94 216.014 221.94 230.002C221.94 244.085 232 254.318 245.634 254.318ZM245.634 244.554C238.958 244.554 232.847 239.484 232.847 230.002C232.847 220.52 238.958 215.638 245.634 215.638C252.404 215.638 258.421 220.52 258.421 230.002C258.421 239.578 252.404 244.554 245.634 244.554ZM298.037 252.91L315.995 207.189H304.524L292.677 239.86L280.548 207.189H268.513L287.13 252.91H298.037ZM338.498 254.318C349.499 254.318 356.739 247.84 359.183 239.86L349.969 236.95C348.465 241.456 345.08 244.93 338.498 244.93C331.728 244.93 326.275 239.954 325.993 233.007H359.466C359.56 232.819 359.748 231.317 359.748 229.533C359.748 215.075 351.473 205.781 337.37 205.781C325.805 205.781 315.086 215.357 315.086 229.815C315.086 245.305 326.087 254.318 338.498 254.318ZM348.747 225.027H326.275C326.651 220.145 330.6 214.887 337.464 214.887C344.986 214.887 348.559 219.675 348.747 225.027ZM377.173 252.91V231.129C377.173 222.586 381.028 217.704 389.49 217.704C390.619 217.704 391.841 217.798 393.063 217.985V206.907C392.593 206.813 391.465 206.626 390.149 206.626C384.131 206.626 379.054 209.536 376.891 214.512V207.189H366.267V252.91H377.173Z" fill="#1F1E1F"/>
<path fill-rule="evenodd" clip-rule="evenodd" d="M232.167 166.846C207.463 166.846 188.067 150.32 183.686 126.366C183.631 126.068 183.554 125.618 183.456 125.017L207.935 125.017C208.042 125.377 208.125 125.646 208.182 125.823C211.811 137.068 221.669 142.882 232.167 142.882C242.683 142.882 252.556 137.17 256.17 125.842C256.228 125.661 256.311 125.386 256.42 125.017H280.878C280.796 125.519 280.733 125.896 280.689 126.145C276.386 150.219 256.947 166.846 232.167 166.846ZM232.167 65C258.007 65 278.038 82.9144 281.157 108.788C281.201 109.158 281.26 109.718 281.334 110.467H257.214C257.145 110.042 257.09 109.725 257.051 109.516C254.495 95.857 243.719 88.9637 232.167 88.9637C220.747 88.9637 210.085 95.7002 207.374 109.05C207.311 109.359 207.226 109.832 207.12 110.467H183C183.107 109.416 183.194 108.631 183.263 108.113C186.646 82.6033 206.553 65 232.167 65Z" fill="url(#paint0_linear_301_14)"/>
<defs>
<linearGradient id="paint0_linear_301_14" x1="1229.52" y1="1163.13" x2="9977.3" y2="9942.79" gradientUnits="userSpaceOnUse">
<stop stop-color="#40E0CF"/>
<stop offset="1" stop-color="#36CDCF"/>
</linearGradient>
</defs>
</svg>
