<svg width="24" height="24" viewBox="0 0 24 24" fill="none"
xmlns="http://www.w3.org/2000/svg">
  <rect x="3" y="4" width="18" height="17" rx="2"
        stroke="#d1d5db" stroke-width="1.5"/>
  <line x1="3" y1="9" x2="21" y2="9"
        stroke="#d1d5db" stroke-width="1.5"/>
  <line x1="8" y1="2.5" x2="8" y2="6"
        stroke="#d1d5db" stroke-width="1.5" stroke-linecap="round"/>
  <line x1="16" y1="2.5" x2="16" y2="6"
        stroke="#d1d5db" stroke-width="1.5" stroke-linecap="round"/>

  <!-- 3x3 grid hover (ONLY squares turn red) -->
  <rect x="7.5" y="11" width="2.5" height="2.5" rx="0.5" fill="red"/>
  <rect x="11"  y="11" width="2.5" height="2.5" rx="0.5" fill="red"/>
  <rect x="14.5" y="11" width="2.5" height="2.5" rx="0.5" fill="red"/>

  <rect x="7.5" y="14" width="2.5" height="2.5" rx="0.5" fill="red"/>
  <rect x="11"  y="14" width="2.5" height="2.5" rx="0.5" fill="red"/>
  <rect x="14.5" y="14" width="2.5" height="2.5" rx="0.5" fill="red"/>

  <rect x="7.5" y="17" width="2.5" height="2.5" rx="0.5" fill="red"/>
  <rect x="11"  y="17" width="2.5" height="2.5" rx="0.5" fill="red"/>
  <rect x="14.5" y="17" width="2.5" height="2.5" rx="0.5" fill="red"/>
</svg>
