<svg width="340" height="190" viewBox="0 0 340 190" fill="none" xmlns="http://www.w3.org/2000/svg">
<rect width="340" height="190" fill="#E8EDED"/>
<path fill-rule="evenodd" clip-rule="evenodd" d="M134 68C132.343 68 131 69.3284 131 70.967V119.033C131 120.672 132.343 122 134 122H206C207.657 122 209 120.672 209 119.033V70.967C209 69.3284 207.657 68 206 68H134ZM149.201 80.8572C149.201 83.6975 146.873 86 144.001 86C141.129 86 138.801 83.6975 138.801 80.8572C138.801 78.0169 141.129 75.7143 144.001 75.7143C146.873 75.7143 149.201 78.0169 149.201 80.8572ZM162.602 104.732L149.305 93.6043C148.511 92.9398 147.335 92.9882 146.599 93.7156L134.9 105.286V116.857C134.9 117.567 135.482 118.143 136.2 118.143H203.8C204.518 118.143 205.1 117.567 205.1 116.857V99.0096L189.709 85.9615C188.915 85.2889 187.732 85.3338 186.993 86.0647L158.379 114.364C157.618 115.117 156.383 115.117 155.622 114.364C154.86 113.611 154.86 112.39 155.622 111.636L162.602 104.732Z" fill="white"/>
</svg>