<svg width="250" height="180" viewBox="0 0 250 180" fill="none" xmlns="http://www.w3.org/2000/svg">
<rect width="250" height="180" fill="#D6D6D6"/>
<g clip-path="url(#clip0_301_12)">
<path d="M162.182 105.201H161.662V96.2729H162.182C165.237 96.2729 167.098 97.6479 167.098 100.883C167.098 103.915 164.961 105.198 162.182 105.198M161.817 89.0559H153.291V112.107H163.891C170.641 112.107 175.467 107.763 175.467 100.918C175.467 92.4479 169.541 89.0559 161.816 89.0559" fill="#0A59EF"/>
<path d="M176.8 89.056V112.106H192.531V105.806H185.231V103.543H191.676V97.553H185.231V95.353H192.287V89.053L176.8 89.056Z" fill="#0A59EF"/>
<path d="M143.541 101.831L136.479 89.0559H128.448V112.101H136.475V99.9929L143.537 112.101H151.537V89.0559H143.537L143.541 101.831Z" fill="#0A59EF"/>
<path d="M89.918 89.056L86.1 99.048L82.238 89.056H89.918ZM89.918 66.001L86.1 79.04L82.235 66.001H57V73.292H62.373V89.056H71.041V73.25H76.189L82.235 89.055H74.19L70.465 112.101H78.558L79.751 99.473L83.663 112.101H88.55L92.457 99.473L93.59 112.101H101.684L97.9 89.055H89.918L98.772 66.001H89.918Z" fill="#0A59EF"/>
<path d="M114.267 105.363C113.321 105.363 112.396 105.082 111.609 104.556C110.822 104.03 110.209 103.283 109.847 102.409C109.485 101.534 109.39 100.572 109.575 99.6442C109.76 98.7161 110.215 97.8636 110.884 97.1945C111.554 96.5253 112.406 96.0696 113.334 95.885C114.262 95.7003 115.224 95.795 116.099 96.157C116.973 96.5191 117.72 97.1322 118.246 97.9189C118.772 98.7057 119.053 99.6307 119.053 100.577C119.053 101.205 118.929 101.828 118.689 102.409C118.448 102.989 118.096 103.517 117.651 103.961C117.207 104.406 116.679 104.758 116.098 104.999C115.518 105.239 114.895 105.363 114.267 105.363M114.267 87.994C114.018 87.994 113.767 88.003 113.526 88.017C114.942 87.5076 116.175 86.5896 117.069 85.3791C117.963 84.1687 118.478 82.7202 118.549 81.217C118.849 76.46 113.769 74.009 110.93 74.009C107.375 74.009 105.974 74.894 105.974 74.894L106.451 72.467H117.065V66.001H100.3L98.0369 79.708C99.8529 79.2242 101.71 78.9098 103.584 78.769C106.546 78.592 109.562 79.291 109.484 81.244C109.419 82.921 105.809 83.751 102.946 83.164C101.175 82.7797 99.4477 82.2175 97.79 81.486L96.7729 87.601C96.7729 87.601 102.224 89.487 106.204 89.39C106.98 89.371 107.904 89.32 108.895 89.197C106.092 90.5172 103.875 92.8248 102.668 95.678C101.461 98.5311 101.348 101.729 102.352 104.66C103.356 107.591 105.406 110.049 108.109 111.562C110.812 113.076 113.978 113.54 117.002 112.864C120.025 112.189 122.693 110.422 124.495 107.902C126.297 105.382 127.106 102.286 126.768 99.2062C126.429 96.1267 124.966 93.2804 122.66 91.2122C120.353 89.1439 117.365 87.9991 114.267 87.997" fill="#0A59EF"/>
</g>
<defs>
<clipPath id="clip0_301_12">
<rect width="135.526" height="47.16" fill="#D6D6D6" transform="translate(57 66)"/>
</clipPath>
</defs>
</svg>
