<svg xmlns="http://www.w3.org/2000/svg" viewBox="0 0 18 20" width="18" height="20">
<g transform="translate(-695 -1630.998)">
<path d="M16392-146a.945.945 0 0 1-1-1 .945.945 0 0 1 1-1h16a.945.945 0 0 1 1 1 .945.945 0 0 1-1 1zm7.4-5.2l-5-4a.976.976 0 0 1-.2-1.4.986.986 0 0 1 1.4-.2l3.4 2.7V-165a.947.947 0 0 1 1-1 .945.945 0 0 1 1 1v10.9l3.4-2.7a1.076 1.076 0 0 1 1.4.2 1.081 1.081 0 0 1-.2 1.4l-5 4a1.439 1.439 0 0 1-.6.2 1.424 1.424 0 0 1-.6-.2z" transform="translate(-15696 1797)" style="fill:#bec4c4;"/>
</g>
</svg>
