<svg xmlns="http://www.w3.org/2000/svg" viewBox="0 0 27 23">
    <g id="Layer_2" data-name="Layer 2">
        <g id="Icons">
            <path fill="current" d="M26,4a1,1,0,0,0-1,1V21H9a1,1,0,0,0,0,2H25a2,2,0,0,0,2-2V5A1,1,0,0,0,26,4Z" />
            <path fill="current" d="M17.86,6.51a1,1,0,0,0,0-1C17.72,5.26,14.5,0,9,0S.28,5.26.14,5.49a1,1,0,0,0,0,1C.28,6.74,3.5,12,9,12S17.72,6.74,17.86,6.51ZM12,2.75A1,1,0,0,0,12,3,3,3,0,0,1,6,3a1,1,0,0,0-.05-.25A6.81,6.81,0,0,1,9,2,6.79,6.79,0,0,1,12,2.75ZM2.21,6A12.14,12.14,0,0,1,4.1,4a5,5,0,0,0,9.8,0,12.27,12.27,0,0,1,1.89,2c-.87,1.19-3.31,4-6.79,4S3.09,7.18,2.21,6Z" />
            <path fill="current" d="M23,17V3a2,2,0,0,0-2-2H19a1,1,0,0,0,0,2h2V17H7V15a1,1,0,0,0-2,0v2a2,2,0,0,0,2,2H21A2,2,0,0,0,23,17Z" />
        </g>
    </g>
</svg>