<svg xmlns="http://www.w3.org/2000/svg" viewBox="0 0 24 24" width="24" height="24"><g id="Layer_2" data-name="Layer 2"><g id="Icons"><path style="fill:current;" d="M18.5,24H5.5a5.5,5.5,0,0,1,0-11h13a5.5,5.5,0,0,1,0,11Zm-13-9a3.5,3.5,0,0,0,0,7h13a3.5,3.5,0,0,0,0-7Z"/><circle style="fill:current;" cx="6.5" cy="18.5" r="2.5"/><path style="fill:current;" d="M18.5,11H5.5a5.5,5.5,0,0,1,0-11h13a5.5,5.5,0,0,1,0,11ZM5.5,2a3.5,3.5,0,0,0,0,7h13a3.5,3.5,0,0,0,0-7Z"/><circle style="fill:current;" cx="17.5" cy="5.5" r="2.5"/></g></g></svg>