<svg width="512" height="512" viewBox="0 0 512 512" fill="transparent" xmlns="http://www.w3.org/2000/svg">
<path d="M0 0H512V512H0V0Z" fill="transparent"/>
<rect x="22" y="97" width="147.696" height="154" fill="#4F864A"/>
<path d="M75.9591 189.824L91.8271 134H99.514L95.0666 155.703L77.9907 214H70.3586L75.9591 189.824ZM59.5421 134L72.1706 188.725L75.9591 214H68.382L49 134H59.5421ZM120.049 188.67L132.403 134H143L123.673 214H116.096L120.049 188.67ZM100.667 134L116.096 189.824L121.696 214H114.064L97.5923 155.703L93.09 134H100.667Z" fill="white"/>
<rect x="183" y="267" width="147.7" height="147.7" fill="#4F864A"/>
<path d="M284 376.188V386H238.655V376.188H284ZM241.022 295V386H229V295H241.022Z" fill="white"/>
<rect x="343" y="266" width="147.7" height="147.7" fill="#4F864A"/>
<path d="M445.812 375.188V385H397.625V375.188H445.812ZM400.062 294V385H388V294H400.062ZM439.438 333.125V342.938H397.625V333.125H439.438ZM445.188 294V303.875H397.625V294H445.188Z" fill="white"/>
<rect x="22" y="267" width="147.7" height="147.7" fill="#4F864A"/>
<path d="M87.5503 385H69.3795L69.4991 375.619H87.5503C93.7666 375.619 98.9469 374.324 103.091 371.735C107.235 369.106 110.343 365.441 112.416 360.74C114.528 356 115.583 350.463 115.583 344.129V338.811C115.583 333.832 114.986 329.41 113.79 325.546C112.595 321.642 110.842 318.356 108.53 315.687C106.219 312.978 103.39 310.927 100.043 309.532C96.7353 308.138 92.9298 307.441 88.6262 307.441H69.0209V298H88.6262C94.3245 298 99.5247 298.956 104.227 300.868C108.929 302.74 112.973 305.469 116.361 309.054C119.787 312.6 122.417 316.902 124.25 321.961C126.083 326.98 127 332.637 127 338.931V344.129C127 350.423 126.083 356.1 124.25 361.159C122.417 366.178 119.768 370.46 116.301 374.005C112.874 377.551 108.73 380.28 103.868 382.192C99.0465 384.064 93.6072 385 87.5503 385ZM75.5361 298V385H64V298H75.5361Z" fill="white"/>
<rect x="343" y="97" width="147.696" height="154" fill="#4F864A"/>
<path d="M384 128H414.125C420.958 128 426.729 129.042 431.438 131.125C436.188 133.208 439.792 136.292 442.25 140.375C444.75 144.417 446 149.396 446 155.312C446 159.479 445.146 163.292 443.438 166.75C441.771 170.167 439.354 173.083 436.188 175.5C433.062 177.875 429.312 179.646 424.938 180.812L421.562 182.125H393.25L393.125 172.312H414.5C418.833 172.312 422.438 171.562 425.312 170.062C428.188 168.521 430.354 166.458 431.812 163.875C433.271 161.292 434 158.438 434 155.312C434 151.812 433.312 148.75 431.938 146.125C430.562 143.5 428.396 141.479 425.438 140.062C422.521 138.604 418.75 137.875 414.125 137.875H396.062V219H384V128ZM437.188 219L415.062 177.75L427.625 177.688L450.062 218.25V219H437.188Z" fill="white"/>
<rect x="183" y="97" width="147.696" height="154" fill="#4F864A"/>
<path d="M293.188 170.875V176.625C293.188 183.458 292.333 189.583 290.625 195C288.917 200.417 286.458 205.021 283.25 208.812C280.042 212.604 276.188 215.5 271.688 217.5C267.229 219.5 262.229 220.5 256.688 220.5C251.312 220.5 246.375 219.5 241.875 217.5C237.417 215.5 233.542 212.604 230.25 208.812C227 205.021 224.479 200.417 222.688 195C220.896 189.583 220 183.458 220 176.625V170.875C220 164.042 220.875 157.938 222.625 152.562C224.417 147.146 226.938 142.542 230.188 138.75C233.438 134.917 237.292 132 241.75 130C246.25 128 251.188 127 256.562 127C262.104 127 267.104 128 271.562 130C276.062 132 279.917 134.917 283.125 138.75C286.375 142.542 288.854 147.146 290.562 152.562C292.312 157.938 293.188 164.042 293.188 170.875ZM281.25 176.625V170.75C281.25 165.333 280.688 160.542 279.562 156.375C278.479 152.208 276.875 148.708 274.75 145.875C272.625 143.042 270.021 140.896 266.938 139.438C263.896 137.979 260.438 137.25 256.562 137.25C252.812 137.25 249.417 137.979 246.375 139.438C243.375 140.896 240.792 143.042 238.625 145.875C236.5 148.708 234.854 152.208 233.688 156.375C232.521 160.542 231.938 165.333 231.938 170.75V176.625C231.938 182.083 232.521 186.917 233.688 191.125C234.854 195.292 236.521 198.812 238.688 201.688C240.896 204.521 243.5 206.667 246.5 208.125C249.542 209.583 252.938 210.312 256.688 210.312C260.604 210.312 264.083 209.583 267.125 208.125C270.167 206.667 272.729 204.521 274.812 201.688C276.938 198.812 278.542 195.292 279.625 191.125C280.708 186.917 281.25 182.083 281.25 176.625Z" fill="white"/>
</svg>
