<svg xmlns="http://www.w3.org/2000/svg" viewBox="0 0 340 222" width="340" height="222" version="1.1">
 <g>
  <rect width="100%" height="100%" x="0" y="0" style="fill:#f3f5f5" />
  <path d="m 169.99985,146.0085 c -0.312,0 -31.311,-0.024 -39.127,-2.142 a 12.53,12.53 0 0 1 -8.814,-8.815 c -2.035,-7.653 -2.058,-23.888 -2.058,-24.051 0,-0.163 0.024,-16.318 2.058,-24.054 a 12.818,12.818 0 0 1 8.814,-8.9 c 7.736,-2.031 38.814,-2.055 39.127,-2.055 0.313,0 31.391,0.024 39.125,2.14 a 12.531,12.531 0 0 1 8.814,8.814 c 2.117,7.736 2.061,23.972 2.06,24.135 -0.001,0.163 -0.024,16.317 -2.06,24.054 a 12.528,12.528 0 0 1 -8.814,8.812 c -7.734,2.038 -38.812,2.062 -39.125,2.062 z m -9.968,-50 v 29.983 l 26.029,-14.992 z" style="fill:#ffffff" />
 </g>
</svg>